<?xml version="1.0" encoding="UTF-8" standalone="no"?>
<svg
   xmlns:dc="http://purl.org/dc/elements/1.1/"
   xmlns:cc="http://creativecommons.org/ns#"
   xmlns:rdf="http://www.w3.org/1999/02/22-rdf-syntax-ns#"
   xmlns:svg="http://www.w3.org/2000/svg"
   xmlns="http://www.w3.org/2000/svg"
   xmlns:sodipodi="http://sodipodi.sourceforge.net/DTD/sodipodi-0.dtd"
   xmlns:inkscape="http://www.inkscape.org/namespaces/inkscape"
   width="1754"
   height="1128"
   version="1.1"
   viewBox="0 0 1754 1128"
   id="svg3503"
   inkscape:version="0.48.3.1 r9886"
   sodipodi:docname="coffin128.5x60.6testpcb.svg">
  <metadata
     id="metadata3959">
    <rdf:RDF>
      <cc:Work
         rdf:about="">
        <dc:format>image/svg+xml</dc:format>
        <dc:type
           rdf:resource="http://purl.org/dc/dcmitype/StillImage" />
        <dc:title></dc:title>
      </cc:Work>
    </rdf:RDF>
  </metadata>
  <defs
     id="defs3957" />
  <sodipodi:namedview
     pagecolor="#ffffff"
     bordercolor="#666666"
     borderopacity="1"
     objecttolerance="10"
     gridtolerance="10"
     guidetolerance="10"
     inkscape:pageopacity="0"
     inkscape:pageshadow="2"
     inkscape:window-width="1398"
     inkscape:window-height="1029"
     id="namedview3955"
     showgrid="false"
     inkscape:zoom="1.3261563"
     inkscape:cx="610.81719"
     inkscape:cy="600.78132"
     inkscape:window-x="0"
     inkscape:window-y="19"
     inkscape:window-maximized="1"
     inkscape:current-layer="svg3503" />
  <desc
     id="desc3505">coffin by Template maker</desc>
  <!-- pageSet -->
  <g
     class="page"
     id="page-0"
     transform="translate(0)">
    <g
       style="fill:none; stroke:rgb(14,123,201);stroke-width:1;stroke-miterlimit:4;stroke-dasharray:8,4"
       inkscape:groupmode="layer"
       id="fold"
       transform="translate(438.6234,336.585)"
       inkscape:label="fold">
      <path
         id="fold-f1"
         d="M0,-141.7 L53.7,-141.7 L53.7,0 L185.6,-51.8 L239.3,84.7 L107.4,136.6 L246.4,163.9 L183.8,482.6 L44.7,455.3 L44.7,597 L0,597" />
      <path
         id="fold-f2"
         d="M0,0 L53.7,0 L107.4,136.6 L44.7,455.3 L0,455.3" />
      <path
         id="fold-f1m"
         d="M0,-141.7 L-53.7,-141.7 L-53.7,0 L-185.6,-51.8 L-239.3,84.7 L-107.4,136.6 L-246.4,163.9 L-183.8,482.6 L-44.7,455.3 L-44.7,597 L-0,597" />
      <path
         id="fold-f2m"
         d="M0,0 L-53.7,0 L-107.4,136.6 L-44.7,455.3 L-0,455.3" />
    </g>
    <g
       style="fill:none; stroke:rgb(216,84,44);stroke-width:2;stroke-miterlimit:4;stroke-dasharray:0"
       inkscape:groupmode="layer"
       id="cut"
       transform="translate(438.6234,336.585)"
       inkscape:label="cut">
      <path
         id="cut-c1"
         d="M0,-283.4 L53.7,-283.4 L53.7,-141.7 L53.7,0 L53.7,-57.7 L146.3,-94.1 L185.6,-51.8 L317.5,-103.7 L371.2,32.9 L239.3,84.7 L107.4,136.6 L263.9,75.1 L246.4,163.9 L385.5,191.2 L322.9,509.9 L183.8,482.6 L166.5,524.8 L44.7,500.9 L44.7,455.3 L44.7,597 L44.7,738.7 L-8.9,738.7" />
      <path
         id="cut-c1m"
         d="M0,-283.4 L-53.7,-283.4 L-53.7,-141.7 L-53.7,0 L-53.7,-57.7 L-146.3,-94.1 L-185.6,-51.8 L-317.5,-103.7 L-371.2,32.9 L-239.3,84.7 L-107.4,136.6 L-263.9,75.1 L-246.4,163.9 L-385.5,191.2 L-322.9,509.9 L-183.8,482.6 L-166.5,524.8 L-44.7,500.9 L-44.7,455.3 L-44.7,597 L-44.7,738.7 L8.9,738.7" />
    </g>
    <line
       x1="0"
       x2="877"
       y1="53.145"
       y2="53.145"
       stroke="gray"
       stroke-width="0.25"
       id="line3516" />
    <text
       x="0"
       y="53.145"
       style="font-size:9px;font-family:Arial;font-weight: bold"
       id="text3518">15</text>
    <line
       x1="0"
       x2="877"
       y1="194.865"
       y2="194.865"
       stroke="gray"
       stroke-width="0.25"
       id="line3520" />
    <text
       x="30"
       y="194.865"
       style="font-size:9px;font-family:Arial;font-weight: bold"
       id="text3522">55</text>
    <line
       x1="0"
       x2="877"
       y1="232.9125684"
       y2="232.9125684"
       stroke="gray"
       stroke-width="0.25"
       id="line3524" />
    <text
       x="0"
       y="232.9125684"
       style="font-size:9px;font-family:Arial;font-weight: bold"
       id="text3526">65.74</text>
    <line
       x1="0"
       x2="877"
       y1="242.5073667"
       y2="242.5073667"
       stroke="gray"
       stroke-width="0.25"
       id="line3528" />
    <text
       x="30"
       y="242.5073667"
       style="font-size:9px;font-family:Arial;font-weight: bold"
       id="text3530">68.45</text>
    <line
       x1="0"
       x2="877"
       y1="278.9124003"
       y2="278.9124003"
       stroke="gray"
       stroke-width="0.25"
       id="line3532" />
    <text
       x="0"
       y="278.9124003"
       style="font-size:9px;font-family:Arial;font-weight: bold"
       id="text3534">78.72</text>
    <line
       x1="0"
       x2="877"
       y1="284.7487842"
       y2="284.7487842"
       stroke="gray"
       stroke-width="0.25"
       id="line3536" />
    <text
       x="30"
       y="284.7487842"
       style="font-size:9px;font-family:Arial;font-weight: bold"
       id="text3538">80.37</text>
    <line
       x1="0"
       x2="877"
       y1="336.585"
       y2="336.585"
       stroke="gray"
       stroke-width="0.25"
       id="line3540" />
    <text
       x="0"
       y="336.585"
       style="font-size:9px;font-family:Arial;font-weight: bold"
       id="text3542">95</text>
    <line
       x1="0"
       x2="877"
       y1="369.4952184"
       y2="369.4952184"
       stroke="gray"
       stroke-width="0.25"
       id="line3544" />
    <text
       x="30"
       y="369.4952184"
       style="font-size:9px;font-family:Arial;font-weight: bold"
       id="text3546">104.3</text>
    <line
       x1="0"
       x2="877"
       y1="411.6572727"
       y2="411.6572727"
       stroke="gray"
       stroke-width="0.25"
       id="line3548" />
    <text
       x="0"
       y="411.6572727"
       style="font-size:9px;font-family:Arial;font-weight: bold"
       id="text3550">116.2</text>
    <line
       x1="0"
       x2="877"
       y1="421.3314342"
       y2="421.3314342"
       stroke="gray"
       stroke-width="0.25"
       id="line3552" />
    <text
       x="30"
       y="421.3314342"
       style="font-size:9px;font-family:Arial;font-weight: bold"
       id="text3554">118.9</text>
    <line
       x1="0"
       x2="877"
       y1="473.16765"
       y2="473.16765"
       stroke="gray"
       stroke-width="0.25"
       id="line3556" />
    <text
       x="0"
       y="473.16765"
       style="font-size:9px;font-family:Arial;font-weight: bold"
       id="text3558">133.6</text>
    <line
       x1="0"
       x2="877"
       y1="500.4926832"
       y2="500.4926832"
       stroke="gray"
       stroke-width="0.25"
       id="line3560" />
    <text
       x="30"
       y="500.4926832"
       style="font-size:9px;font-family:Arial;font-weight: bold"
       id="text3562">141.3</text>
    <line
       x1="0"
       x2="877"
       y1="527.8180707"
       y2="527.8180707"
       stroke="gray"
       stroke-width="0.25"
       id="line3564" />
    <text
       x="0"
       y="527.8180707"
       style="font-size:9px;font-family:Arial;font-weight: bold"
       id="text3566">149</text>
    <line
       x1="0"
       x2="877"
       y1="791.8605"
       y2="791.8605"
       stroke="gray"
       stroke-width="0.25"
       id="line3568" />
    <text
       x="30"
       y="791.8605"
       style="font-size:9px;font-family:Arial;font-weight: bold"
       id="text3570">223.5</text>
    <line
       x1="0"
       x2="877"
       y1="819.1855332"
       y2="819.1855332"
       stroke="gray"
       stroke-width="0.25"
       id="line3572" />
    <text
       x="0"
       y="819.1855332"
       style="font-size:9px;font-family:Arial;font-weight: bold"
       id="text3574">231.2</text>
    <line
       x1="0"
       x2="877"
       y1="837.4461552"
       y2="837.4461552"
       stroke="gray"
       stroke-width="0.25"
       id="line3576" />
    <text
       x="30"
       y="837.4461552"
       style="font-size:9px;font-family:Arial;font-weight: bold"
       id="text3578">236.4</text>
    <line
       x1="0"
       x2="877"
       y1="846.5109207"
       y2="846.5109207"
       stroke="gray"
       stroke-width="0.25"
       id="line3580" />
    <text
       x="0"
       y="846.5109207"
       style="font-size:9px;font-family:Arial;font-weight: bold"
       id="text3582">238.9</text>
    <line
       x1="0"
       x2="877"
       y1="861.3819546"
       y2="861.3819546"
       stroke="gray"
       stroke-width="0.25"
       id="line3584" />
    <text
       x="30"
       y="861.3819546"
       style="font-size:9px;font-family:Arial;font-weight: bold"
       id="text3586">243.1</text>
    <line
       x1="0"
       x2="877"
       y1="933.5805"
       y2="933.5805"
       stroke="gray"
       stroke-width="0.25"
       id="line3588" />
    <text
       x="0"
       y="933.5805"
       style="font-size:9px;font-family:Arial;font-weight: bold"
       id="text3590">263.5</text>
    <line
       x1="0"
       x2="877"
       y1="1075.3005"
       y2="1075.3005"
       stroke="gray"
       stroke-width="0.25"
       id="line3592" />
    <text
       x="30"
       y="1075.3005"
       style="font-size:9px;font-family:Arial;font-weight: bold"
       id="text3594">303.5</text>
    <line
       x1="53.1488973"
       x2="53.1488973"
       y1="0"
       y2="1128"
       stroke="gray"
       stroke-width="0.25"
       id="line3596" />
    <text
       x="53.1488973"
       y="0"
       transform="rotate(90 53.1488973, 0)"
       style="font-size:9px;font-family:Arial; font-weight:bold;"
       id="text3598">15</text>
    <line
       x1="67.4707662"
       x2="67.4707662"
       y1="0"
       y2="1128"
       stroke="gray"
       stroke-width="0.25"
       id="line3600" />
    <text
       x="67.4707662"
       y="30"
       transform="rotate(90 67.4707662, 30)"
       style="font-size:9px;font-family:Arial; font-weight:bold;"
       id="text3602">19.04</text>
    <line
       x1="115.7714223"
       x2="115.7714223"
       y1="0"
       y2="1128"
       stroke="gray"
       stroke-width="0.25"
       id="line3604" />
    <text
       x="115.7714223"
       y="0"
       transform="rotate(90 115.7714223, 0)"
       style="font-size:9px;font-family:Arial; font-weight:bold;"
       id="text3606">32.68</text>
    <line
       x1="121.1472162"
       x2="121.1472162"
       y1="0"
       y2="1128"
       stroke="gray"
       stroke-width="0.25"
       id="line3608" />
    <text
       x="121.1472162"
       y="30"
       transform="rotate(90 121.1472162, 30)"
       style="font-size:9px;font-family:Arial; font-weight:bold;"
       id="text3610">34.19</text>
    <line
       x1="174.7538691"
       x2="174.7538691"
       y1="0"
       y2="1128"
       stroke="gray"
       stroke-width="0.25"
       id="line3612" />
    <text
       x="174.7538691"
       y="0"
       transform="rotate(90 174.7538691, 0)"
       style="font-size:9px;font-family:Arial; font-weight:bold;"
       id="text3614">49.32</text>
    <line
       x1="192.2098758"
       x2="192.2098758"
       y1="0"
       y2="1128"
       stroke="gray"
       stroke-width="0.25"
       id="line3616" />
    <text
       x="192.2098758"
       y="30"
       transform="rotate(90 192.2098758, 30)"
       style="font-size:9px;font-family:Arial; font-weight:bold;"
       id="text3618">54.25</text>
    <line
       x1="199.3706331"
       x2="199.3706331"
       y1="0"
       y2="1128"
       stroke="gray"
       stroke-width="0.25"
       id="line3620" />
    <text
       x="199.3706331"
       y="0"
       transform="rotate(90 199.3706331, 0)"
       style="font-size:9px;font-family:Arial; font-weight:bold;"
       id="text3622">56.27</text>
    <line
       x1="253.0470831"
       x2="253.0470831"
       y1="0"
       y2="1128"
       stroke="gray"
       stroke-width="0.25"
       id="line3624" />
    <text
       x="253.0470831"
       y="30"
       transform="rotate(90 253.0470831, 30)"
       style="font-size:9px;font-family:Arial; font-weight:bold;"
       id="text3626">71.42</text>
    <line
       x1="254.8324008"
       x2="254.8324008"
       y1="0"
       y2="1128"
       stroke="gray"
       stroke-width="0.25"
       id="line3628" />
    <text
       x="254.8324008"
       y="0"
       transform="rotate(90 254.8324008, 0)"
       style="font-size:9px;font-family:Arial; font-weight:bold;"
       id="text3630">71.93</text>
    <line
       x1="272.081142"
       x2="272.081142"
       y1="0"
       y2="1128"
       stroke="gray"
       stroke-width="0.25"
       id="line3632" />
    <text
       x="272.081142"
       y="30"
       transform="rotate(90 272.081142, 30)"
       style="font-size:9px;font-family:Arial; font-weight:bold;"
       id="text3634">76.79</text>
    <line
       x1="292.3130892"
       x2="292.3130892"
       y1="0"
       y2="1128"
       stroke="gray"
       stroke-width="0.25"
       id="line3636" />
    <text
       x="292.3130892"
       y="0"
       transform="rotate(90 292.3130892, 0)"
       style="font-size:9px;font-family:Arial; font-weight:bold;"
       id="text3638">82.5</text>
    <line
       x1="331.2705"
       x2="331.2705"
       y1="0"
       y2="1128"
       stroke="gray"
       stroke-width="0.25"
       id="line3640" />
    <text
       x="331.2705"
       y="30"
       transform="rotate(90 331.2705, 30)"
       style="font-size:9px;font-family:Arial; font-weight:bold;"
       id="text3642">93.5</text>
    <line
       x1="384.94695"
       x2="384.94695"
       y1="0"
       y2="1128"
       stroke="gray"
       stroke-width="0.25"
       id="line3644" />
    <text
       x="384.94695"
       y="0"
       transform="rotate(90 384.94695, 0)"
       style="font-size:9px;font-family:Arial; font-weight:bold;"
       id="text3646">108.7</text>
    <line
       x1="393.893025"
       x2="393.893025"
       y1="0"
       y2="1128"
       stroke="gray"
       stroke-width="0.25"
       id="line3648" />
    <text
       x="393.893025"
       y="30"
       transform="rotate(90 393.893025, 30)"
       style="font-size:9px;font-family:Arial; font-weight:bold;"
       id="text3650">111.2</text>
    <line
       x1="429.677325"
       x2="429.677325"
       y1="0"
       y2="1128"
       stroke="gray"
       stroke-width="0.25"
       id="line3652" />
    <text
       x="429.677325"
       y="0"
       transform="rotate(90 429.677325, 0)"
       style="font-size:9px;font-family:Arial; font-weight:bold;"
       id="text3654">121.3</text>
    <line
       x1="438.6234"
       x2="438.6234"
       y1="0"
       y2="1128"
       stroke="gray"
       stroke-width="0.25"
       id="line3656" />
    <text
       x="438.6234"
       y="30"
       transform="rotate(90 438.6234, 30)"
       style="font-size:9px;font-family:Arial; font-weight:bold;"
       id="text3658">123.8</text>
    <line
       x1="447.569475"
       x2="447.569475"
       y1="0"
       y2="1128"
       stroke="gray"
       stroke-width="0.25"
       id="line3660" />
    <text
       x="447.569475"
       y="0"
       transform="rotate(90 447.569475, 0)"
       style="font-size:9px;font-family:Arial; font-weight:bold;"
       id="text3662">126.3</text>
    <line
       x1="483.353775"
       x2="483.353775"
       y1="0"
       y2="1128"
       stroke="gray"
       stroke-width="0.25"
       id="line3664" />
    <text
       x="483.353775"
       y="30"
       transform="rotate(90 483.353775, 30)"
       style="font-size:9px;font-family:Arial; font-weight:bold;"
       id="text3666">136.4</text>
    <text
       x="492.29985"
       y="0"
       transform="rotate(90 492.29985, 0)"
       style="font-size:9px;font-family:Arial; font-weight:bold;"
       id="text3670">139</text>
    <line
       x1="545.9763"
       x2="545.9763"
       y1="0"
       y2="1128"
       stroke="gray"
       stroke-width="0.25"
       id="line3672" />
    <text
       x="545.9763"
       y="30"
       transform="rotate(90 545.9763, 30)"
       style="font-size:9px;font-family:Arial; font-weight:bold;"
       id="text3674">154.1</text>
    <line
       x1="584.9337108"
       x2="584.9337108"
       y1="0"
       y2="1128"
       stroke="gray"
       stroke-width="0.25"
       id="line3676" />
    <text
       x="584.9337108"
       y="0"
       transform="rotate(90 584.9337108, 0)"
       style="font-size:9px;font-family:Arial; font-weight:bold;"
       id="text3678">165.1</text>
    <line
       x1="605.165658"
       x2="605.165658"
       y1="0"
       y2="1128"
       stroke="gray"
       stroke-width="0.25"
       id="line3680" />
    <text
       x="605.165658"
       y="30"
       transform="rotate(90 605.165658, 30)"
       style="font-size:9px;font-family:Arial; font-weight:bold;"
       id="text3682">170.8</text>
    <line
       x1="622.4143992"
       x2="622.4143992"
       y1="0"
       y2="1128"
       stroke="gray"
       stroke-width="0.25"
       id="line3684" />
    <text
       x="622.4143992"
       y="0"
       transform="rotate(90 622.4143992, 0)"
       style="font-size:9px;font-family:Arial; font-weight:bold;"
       id="text3686">175.7</text>
    <line
       x1="624.1997169"
       x2="624.1997169"
       y1="0"
       y2="1128"
       stroke="gray"
       stroke-width="0.25"
       id="line3688" />
    <text
       x="624.1997169"
       y="30"
       transform="rotate(90 624.1997169, 30)"
       style="font-size:9px;font-family:Arial; font-weight:bold;"
       id="text3690">176.2</text>
    <line
       x1="677.8761669"
       x2="677.8761669"
       y1="0"
       y2="1128"
       stroke="gray"
       stroke-width="0.25"
       id="line3692" />
    <text
       x="677.8761669"
       y="0"
       transform="rotate(90 677.8761669, 0)"
       style="font-size:9px;font-family:Arial; font-weight:bold;"
       id="text3694">191.3</text>
    <line
       x1="685.0369242"
       x2="685.0369242"
       y1="0"
       y2="1128"
       stroke="gray"
       stroke-width="0.25"
       id="line3696" />
    <text
       x="685.0369242"
       y="30"
       transform="rotate(90 685.0369242, 30)"
       style="font-size:9px;font-family:Arial; font-weight:bold;"
       id="text3698">193.3</text>
    <line
       x1="702.4929309"
       x2="702.4929309"
       y1="0"
       y2="1128"
       stroke="gray"
       stroke-width="0.25"
       id="line3700" />
    <text
       x="702.4929309"
       y="0"
       transform="rotate(90 702.4929309, 0)"
       style="font-size:9px;font-family:Arial; font-weight:bold;"
       id="text3702">198.3</text>
    <line
       x1="756.0995838"
       x2="756.0995838"
       y1="0"
       y2="1128"
       stroke="gray"
       stroke-width="0.25"
       id="line3704" />
    <text
       x="756.0995838"
       y="30"
       transform="rotate(90 756.0995838, 30)"
       style="font-size:9px;font-family:Arial; font-weight:bold;"
       id="text3706">213.4</text>
    <line
       x1="761.4753777"
       x2="761.4753777"
       y1="0"
       y2="1128"
       stroke="gray"
       stroke-width="0.25"
       id="line3708" />
    <text
       x="761.4753777"
       y="0"
       transform="rotate(90 761.4753777, 0)"
       style="font-size:9px;font-family:Arial; font-weight:bold;"
       id="text3710">214.9</text>
    <line
       x1="809.7760338"
       x2="809.7760338"
       y1="0"
       y2="1128"
       stroke="gray"
       stroke-width="0.25"
       id="line3712" />
    <text
       x="809.7760338"
       y="30"
       transform="rotate(90 809.7760338, 30)"
       style="font-size:9px;font-family:Arial; font-weight:bold;"
       id="text3714">228.6</text>
    <line
       x1="824.0979027"
       x2="824.0979027"
       y1="0"
       y2="1128"
       stroke="gray"
       stroke-width="0.25"
       id="line3716" />
    <text
       x="824.0979027"
       y="0"
       transform="rotate(90 824.0979027, 0)"
       style="font-size:9px;font-family:Arial; font-weight:bold;"
       id="text3718">232.6</text>
  </g>
  <!-- /pageSet -->
  <text
     y="1098"
     x="10"
     style="font-size:18px;font-family:Arial"
     id="text3929">Coffin 60.6 x 128.5 x 40 mm</text>
  <text
     y="1110"
     x="10"
     style="font-size: 10px; font-family:arial"
     id="text3931">Created with <tspan
   style="font-weight:bold;"
   id="tspan3933">http://www.templatemaker.nl<tspan
   style="fill:#0000ff"
   id="tspan3935">/coffin</tspan>
</tspan>
<tspan
   style="fill:#666666"
   id="tspan3937">?units=mm<tspan
   style="fill:silver"
   id="tspan3939">&amp;</tspan>

l=128.5<tspan
   style="fill:silver"
   id="tspan3941">&amp;</tspan>

w=60.6<tspan
   style="fill:silver"
   id="tspan3943">&amp;</tspan>

h=40<tspan
   style="fill:silver"
   id="tspan3945">&amp;</tspan>

lid=10<tspan
   style="fill:silver"
   id="tspan3947">&amp;</tspan>

c=70<tspan
   style="fill:silver"
   id="tspan3949">&amp;</tspan>

glue=20<tspan
   style="fill:silver"
   id="tspan3951">&amp;</tspan>

margin=15<tspan
   style="fill:silver"
   id="tspan3953">&amp;</tspan>

annotate=true</tspan>
</text>
  <rect
     style="fill:#ffb1ff;fill-opacity:1;fill-rule:nonzero;stroke:#0000ff;stroke-width:0.03875308;stroke-miterlimit:4;stroke-opacity:1;stroke-dasharray:none"
     id="rect3961"
     width="212.85368"
     height="155.90552"
     x="331.77667"
     y="422.20084" />
  <rect
     style="fill:#ffffff;fill-opacity:1;fill-rule:nonzero;stroke:#0000ff;stroke-width:0.035;stroke-miterlimit:4;stroke-opacity:1;stroke-dasharray:none"
     id="rect3963"
     width="7.5405893"
     height="1.5081179"
     x="484.10583"
     y="541.34216" />
  <path
     style="fill:none;stroke:#000000;stroke-width:1px;stroke-linecap:butt;stroke-linejoin:miter;stroke-opacity:1"
     d="m 384.57006,335.48405 107.07637,1.50812 55.0463,136.48467 -64.09501,318.96693 -88.97895,-2.26218 z"
     id="path4295"
     inkscape:connector-curvature="0" />
</svg>
