<?xml version="1.0" encoding="UTF-8" standalone="no"?>
<!-- Created with Inkscape (http://www.inkscape.org/) -->

<svg
   xmlns:dc="http://purl.org/dc/elements/1.1/"
   xmlns:cc="http://creativecommons.org/ns#"
   xmlns:rdf="http://www.w3.org/1999/02/22-rdf-syntax-ns#"
   xmlns:svg="http://www.w3.org/2000/svg"
   xmlns="http://www.w3.org/2000/svg"
   xmlns:sodipodi="http://sodipodi.sourceforge.net/DTD/sodipodi-0.dtd"
   xmlns:inkscape="http://www.inkscape.org/namespaces/inkscape"
   version="1.1"
   width="541.41699pt"
   height="541.41602pt"
   viewBox="0 0 541.417 541.416"
   id="svg2242"
   xml:space="preserve"
   inkscape:version="0.48.3.1 r9886"
   sodipodi:docname="vampire-brd_panel.svg"><sodipodi:namedview
   pagecolor="#ffffff"
   bordercolor="#666666"
   borderopacity="1"
   objecttolerance="10"
   gridtolerance="10"
   guidetolerance="10"
   inkscape:pageopacity="0"
   inkscape:pageshadow="2"
   inkscape:window-width="1398"
   inkscape:window-height="1029"
   id="namedview3377"
   showgrid="true"
   showguides="true"
   inkscape:guide-bbox="true"
   inkscape:zoom="4.8766184"
   inkscape:cx="171.6774"
   inkscape:cy="529.13486"
   inkscape:window-x="0"
   inkscape:window-y="19"
   inkscape:window-maximized="1"
   inkscape:current-layer="svg2242"
   inkscape:document-units="mm"
   inkscape:snap-grids="false"><inkscape:grid
     type="xygrid"
     id="grid3379"
     units="mm"
     empspacing="5"
     dotted="true"
     visible="true"
     enabled="true"
     snapvisiblegridlinesonly="true" /><sodipodi:guide
     orientation="0,1"
     position="283.46457,620.07874"
     id="guide3123" /><sodipodi:guide
     orientation="0,1"
     position="124.01575,230.31496"
     id="guide3133" /></sodipodi:namedview><metadata
   id="metadata2286"><rdf:RDF><cc:Work
       rdf:about=""><dc:format>image/svg+xml</dc:format><dc:type
         rdf:resource="http://purl.org/dc/dcmitype/StillImage" /><dc:title /></cc:Work></rdf:RDF></metadata><defs
   id="defs2284">
		
		
		
		
		
		
		
	
		
		
		
		
		
		
		
		
		
		
		
		
	
			
			
			
			
			
		
			
			
			
			
			
			
		
			
			
			
			
			
		
			
			
			
			
			
			
			
			
			
			
		
		
		
		
		
		
		
		
	
		
		
		
		
		
		
		
		
		
		
		
		
	
			
			
			
			
			
		
			
			
			
			
			
			
		
			
			
			
			
			
		
			
			
			
			
			
			
			
			
			
			
		
		
		
		
		
		
		
		
	
		
		
		
		
		
		
		
	
		
		
		
		
		
		
		
		
		
		
		
		
	
			
			
			
			
			
		
			
			
			
			
			
			
		
			
			
			
			
			
		
			
			
			
			
			
			
			
			
			
			
		
		
		
		
		
		
		
		
	
		
		
		
		
		
		
		
		
		
		
		
		
	
			
			
			
			
			
		
			
			
			
			
			
			
		
			
			
			
			
			
		
			
			
			
			
			
			
			
			
			
			
		
		
		
		
		
		
		
		
	
		
		
		
		
		
		
		
		
		
		
		
		
	
			
			
			
			
			
		
			
			
			
			
			
			
		
			
			
			
			
			
		
			
			
			
			
			
			
			
			
			
			
		
		
		
		
		
		
		
		
	
		
		
		
		
		
		
		
		
		
		
		
		
	
			
			
			
			
			
		
			
			
			
			
			
			
		
			
			
			
			
			
		
			
			
			
			
			
			
			
			
			
			
		
		
		
		
		
		
		
		
	
		
		
		
		
		
		
		
		
		
		
		
		
	
			
			
			
			
			
		
			
			
			
			
			
			
		
			
			
			
			
			
		
			
			
			
			
			
			
			
			
			
			
		
		
		
		
		
		
		
		
	
		
		
		
		
		
		
		
	
		
		
		
		
		
		
		
		
		
		
		
		
	
			
			
			
			
			
		
			
			
			
			
			
			
		
			
			
			
			
			
		
			
			
			
			
			
			
			
			
			
			
		</defs>
	
<g
   style="fill:#000000;stroke:#000000;stroke-width:1"
   id="g4976"
   transform="matrix(0.0072,0,0,0.0072,-248.88906,-143.98867)" /><g
   style="fill:#c0c0c0;fill-opacity:0;stroke:#c0c0c0;stroke-width:39;stroke-linecap:round;stroke-linejoin:round;stroke-opacity:1"
   id="g5234"
   transform="matrix(0.0072,0,0,0.0072,-248.88906,-143.98867)"><path
     inkscape:connector-curvature="0"
     d="m 60942,29571 57,37"
     id="path5236" /><path
     inkscape:connector-curvature="0"
     d="m 60999,29608 115,0"
     id="path5238" /><path
     inkscape:connector-curvature="0"
     d="m 61114,29608 57,-37"
     id="path5240" /><path
     inkscape:connector-curvature="0"
     d="m 61171,29571 28,-75"
     id="path5242" /><path
     inkscape:connector-curvature="0"
     d="m 61199,29496 0,-38"
     id="path5244" /><path
     inkscape:connector-curvature="0"
     d="m 61199,29458 -28,-75"
     id="path5246" /><path
     inkscape:connector-curvature="0"
     d="m 61171,29383 -57,-37"
     id="path5248" /><path
     inkscape:connector-curvature="0"
     d="m 61114,29346 -86,0"
     id="path5250" /><path
     inkscape:connector-curvature="0"
     d="m 61028,29346 -57,-38"
     id="path5252" /><path
     inkscape:connector-curvature="0"
     d="m 60971,29308 -29,-75"
     id="path5254" /><path
     inkscape:connector-curvature="0"
     d="m 60942,29233 0,-37"
     id="path5256" /><path
     inkscape:connector-curvature="0"
     d="m 60942,29196 29,-75"
     id="path5258" /><path
     inkscape:connector-curvature="0"
     d="m 60971,29121 57,-38"
     id="path5260" /><path
     inkscape:connector-curvature="0"
     d="m 61028,29083 86,0"
     id="path5262" /><path
     inkscape:connector-curvature="0"
     d="m 61114,29083 57,38"
     id="path5264" /><g
     style="stroke-linecap:round"
     id="g5266"><path
       inkscape:connector-curvature="0"
       d="m 61171,29121 0,0"
       id="path5268" /></g><path
     inkscape:connector-curvature="0"
     d="m 61543,29608 -58,-37"
     id="path5270" /><path
     inkscape:connector-curvature="0"
     d="m 61485,29571 -28,-75"
     id="path5272" /><path
     inkscape:connector-curvature="0"
     d="m 61457,29496 0,-675"
     id="path5274" /><g
     style="stroke-linecap:round"
     id="g5276"><path
       inkscape:connector-curvature="0"
       d="m 61457,28821 0,0"
       id="path5278" /></g><path
     inkscape:connector-curvature="0"
     d="m 61857,29608 -58,-37"
     id="path5280" /><path
     inkscape:connector-curvature="0"
     d="m 61799,29571 -28,-38"
     id="path5282" /><path
     inkscape:connector-curvature="0"
     d="m 61771,29533 -29,-75"
     id="path5284" /><path
     inkscape:connector-curvature="0"
     d="m 61742,29458 0,-225"
     id="path5286" /><path
     inkscape:connector-curvature="0"
     d="m 61742,29233 29,-75"
     id="path5288" /><path
     inkscape:connector-curvature="0"
     d="m 61771,29158 28,-37"
     id="path5290" /><path
     inkscape:connector-curvature="0"
     d="m 61799,29121 58,-38"
     id="path5292" /><path
     inkscape:connector-curvature="0"
     d="m 61857,29083 85,0"
     id="path5294" /><path
     inkscape:connector-curvature="0"
     d="m 61942,29083 57,38"
     id="path5296" /><path
     inkscape:connector-curvature="0"
     d="m 61999,29121 29,37"
     id="path5298" /><path
     inkscape:connector-curvature="0"
     d="m 62028,29158 29,75"
     id="path5300" /><path
     inkscape:connector-curvature="0"
     d="m 62057,29233 0,225"
     id="path5302" /><path
     inkscape:connector-curvature="0"
     d="m 62057,29458 -29,75"
     id="path5304" /><path
     inkscape:connector-curvature="0"
     d="m 62028,29533 -29,38"
     id="path5306" /><path
     inkscape:connector-curvature="0"
     d="m 61999,29571 -57,37"
     id="path5308" /><path
     inkscape:connector-curvature="0"
     d="m 61942,29608 -85,0"
     id="path5310" /><path
     inkscape:connector-curvature="0"
     d="m 62228,29083 229,0"
     id="path5312" /><g
     style="stroke-linecap:round"
     id="g5314"><path
       inkscape:connector-curvature="0"
       d="m 62457,29083 0,0"
       id="path5316" /></g><path
     inkscape:connector-curvature="0"
     d="m 62314,28821 0,675"
     id="path5318" /><path
     inkscape:connector-curvature="0"
     d="m 62314,29496 28,75"
     id="path5320" /><path
     inkscape:connector-curvature="0"
     d="m 62342,29571 58,37"
     id="path5322" /><path
     inkscape:connector-curvature="0"
     d="m 62400,29608 57,0"
     id="path5324" /><g
     style="stroke-linecap:round"
     id="g5326"><path
       inkscape:connector-curvature="0"
       d="m 62457,29608 0,0"
       id="path5328" /></g><path
     inkscape:connector-curvature="0"
     d="m 62628,29571 57,37"
     id="path5330" /><path
     inkscape:connector-curvature="0"
     d="m 62685,29608 115,0"
     id="path5332" /><path
     inkscape:connector-curvature="0"
     d="m 62800,29608 57,-37"
     id="path5334" /><path
     inkscape:connector-curvature="0"
     d="m 62857,29571 28,-75"
     id="path5336" /><path
     inkscape:connector-curvature="0"
     d="m 62885,29496 0,-38"
     id="path5338" /><path
     inkscape:connector-curvature="0"
     d="m 62885,29458 -28,-75"
     id="path5340" /><path
     inkscape:connector-curvature="0"
     d="m 62857,29383 -57,-37"
     id="path5342" /><path
     inkscape:connector-curvature="0"
     d="m 62800,29346 -86,0"
     id="path5344" /><path
     inkscape:connector-curvature="0"
     d="m 62714,29346 -57,-38"
     id="path5346" /><path
     inkscape:connector-curvature="0"
     d="m 62657,29308 -29,-75"
     id="path5348" /><path
     inkscape:connector-curvature="0"
     d="m 62628,29233 0,-37"
     id="path5350" /><path
     inkscape:connector-curvature="0"
     d="m 62628,29196 29,-75"
     id="path5352" /><path
     inkscape:connector-curvature="0"
     d="m 62657,29121 57,-38"
     id="path5354" /><path
     inkscape:connector-curvature="0"
     d="m 62714,29083 86,0"
     id="path5356" /><path
     inkscape:connector-curvature="0"
     d="m 62800,29083 57,38"
     id="path5358" /><g
     style="stroke-linecap:round"
     id="g5360"><path
       inkscape:connector-curvature="0"
       d="m 62857,29121 0,0"
       id="path5362" /></g><path
     inkscape:connector-curvature="0"
     d="m 63514,29083 229,0"
     id="path5364" /><g
     style="stroke-linecap:round"
     id="g5366"><path
       inkscape:connector-curvature="0"
       d="m 63743,29083 0,0"
       id="path5368" /></g><path
     inkscape:connector-curvature="0"
     d="m 63600,29608 0,-675"
     id="path5370" /><path
     inkscape:connector-curvature="0"
     d="m 63600,28933 28,-74"
     id="path5372" /><path
     inkscape:connector-curvature="0"
     d="m 63628,28859 58,-38"
     id="path5374" /><path
     inkscape:connector-curvature="0"
     d="m 63686,28821 57,0"
     id="path5376" /><g
     style="stroke-linecap:round"
     id="g5378"><path
       inkscape:connector-curvature="0"
       d="m 63743,28821 0,0"
       id="path5380" /></g><path
     inkscape:connector-curvature="0"
     d="m 64029,29608 -58,-37"
     id="path5382" /><path
     inkscape:connector-curvature="0"
     d="m 63971,29571 -28,-38"
     id="path5384" /><path
     inkscape:connector-curvature="0"
     d="m 63943,29533 -29,-75"
     id="path5386" /><path
     inkscape:connector-curvature="0"
     d="m 63914,29458 0,-225"
     id="path5388" /><path
     inkscape:connector-curvature="0"
     d="m 63914,29233 29,-75"
     id="path5390" /><path
     inkscape:connector-curvature="0"
     d="m 63943,29158 28,-37"
     id="path5392" /><path
     inkscape:connector-curvature="0"
     d="m 63971,29121 58,-38"
     id="path5394" /><path
     inkscape:connector-curvature="0"
     d="m 64029,29083 85,0"
     id="path5396" /><path
     inkscape:connector-curvature="0"
     d="m 64114,29083 57,38"
     id="path5398" /><path
     inkscape:connector-curvature="0"
     d="m 64171,29121 29,37"
     id="path5400" /><path
     inkscape:connector-curvature="0"
     d="m 64200,29158 29,75"
     id="path5402" /><path
     inkscape:connector-curvature="0"
     d="m 64229,29233 0,225"
     id="path5404" /><path
     inkscape:connector-curvature="0"
     d="m 64229,29458 -29,75"
     id="path5406" /><path
     inkscape:connector-curvature="0"
     d="m 64200,29533 -29,38"
     id="path5408" /><path
     inkscape:connector-curvature="0"
     d="m 64171,29571 -57,37"
     id="path5410" /><path
     inkscape:connector-curvature="0"
     d="m 64114,29608 -85,0"
     id="path5412" /><path
     inkscape:connector-curvature="0"
     d="m 64486,29608 0,-525"
     id="path5414" /><g
     style="stroke-linecap:round"
     id="g5416"><path
       inkscape:connector-curvature="0"
       d="m 64486,29083 0,0"
       id="path5418" /></g><path
     inkscape:connector-curvature="0"
     d="m 64486,29233 28,-75"
     id="path5420" /><path
     inkscape:connector-curvature="0"
     d="m 64514,29158 29,-37"
     id="path5422" /><path
     inkscape:connector-curvature="0"
     d="m 64543,29121 57,-38"
     id="path5424" /><path
     inkscape:connector-curvature="0"
     d="m 64600,29083 57,0"
     id="path5426" /><g
     style="stroke-linecap:round"
     id="g5428"><path
       inkscape:connector-curvature="0"
       d="m 64657,29083 0,0"
       id="path5430" /></g><path
     inkscape:connector-curvature="0"
     d="m 65314,29608 0,-787"
     id="path5432" /><g
     style="stroke-linecap:round"
     id="g5434"><path
       inkscape:connector-curvature="0"
       d="m 65314,28821 0,0"
       id="path5436" /></g><path
     inkscape:connector-curvature="0"
     d="m 65314,29121 57,-38"
     id="path5438" /><path
     inkscape:connector-curvature="0"
     d="m 65371,29083 114,0"
     id="path5440" /><path
     inkscape:connector-curvature="0"
     d="m 65485,29083 57,38"
     id="path5442" /><path
     inkscape:connector-curvature="0"
     d="m 65542,29121 29,37"
     id="path5444" /><path
     inkscape:connector-curvature="0"
     d="m 65571,29158 29,75"
     id="path5446" /><path
     inkscape:connector-curvature="0"
     d="m 65600,29233 0,225"
     id="path5448" /><path
     inkscape:connector-curvature="0"
     d="m 65600,29458 -29,75"
     id="path5450" /><path
     inkscape:connector-curvature="0"
     d="m 65571,29533 -29,38"
     id="path5452" /><path
     inkscape:connector-curvature="0"
     d="m 65542,29571 -57,37"
     id="path5454" /><path
     inkscape:connector-curvature="0"
     d="m 65485,29608 -114,0"
     id="path5456" /><path
     inkscape:connector-curvature="0"
     d="m 65371,29608 -57,-37"
     id="path5458" /><g
     style="stroke-linecap:round"
     id="g5460"><path
       inkscape:connector-curvature="0"
       d="m 65314,29571 0,0"
       id="path5462" /></g><path
     inkscape:connector-curvature="0"
     d="m 65943,29608 -58,-37"
     id="path5464" /><path
     inkscape:connector-curvature="0"
     d="m 65885,29571 -28,-38"
     id="path5466" /><path
     inkscape:connector-curvature="0"
     d="m 65857,29533 -29,-75"
     id="path5468" /><path
     inkscape:connector-curvature="0"
     d="m 65828,29458 0,-225"
     id="path5470" /><path
     inkscape:connector-curvature="0"
     d="m 65828,29233 29,-75"
     id="path5472" /><path
     inkscape:connector-curvature="0"
     d="m 65857,29158 28,-37"
     id="path5474" /><path
     inkscape:connector-curvature="0"
     d="m 65885,29121 58,-38"
     id="path5476" /><path
     inkscape:connector-curvature="0"
     d="m 65943,29083 85,0"
     id="path5478" /><path
     inkscape:connector-curvature="0"
     d="m 66028,29083 57,38"
     id="path5480" /><path
     inkscape:connector-curvature="0"
     d="m 66085,29121 29,37"
     id="path5482" /><path
     inkscape:connector-curvature="0"
     d="m 66114,29158 29,75"
     id="path5484" /><path
     inkscape:connector-curvature="0"
     d="m 66143,29233 0,225"
     id="path5486" /><path
     inkscape:connector-curvature="0"
     d="m 66143,29458 -29,75"
     id="path5488" /><path
     inkscape:connector-curvature="0"
     d="m 66114,29533 -29,38"
     id="path5490" /><path
     inkscape:connector-curvature="0"
     d="m 66085,29571 -57,37"
     id="path5492" /><path
     inkscape:connector-curvature="0"
     d="m 66028,29608 -85,0"
     id="path5494" /><path
     inkscape:connector-curvature="0"
     d="m 66343,29608 314,-525"
     id="path5496" /><g
     style="stroke-linecap:round"
     id="g5498"><path
       inkscape:connector-curvature="0"
       d="m 66657,29083 0,0"
       id="path5500" /></g><path
     inkscape:connector-curvature="0"
     d="m 66343,29083 314,525"
     id="path5502" /><g
     style="stroke-linecap:round"
     id="g5504"><path
       inkscape:connector-curvature="0"
       d="m 66657,29608 0,0"
       id="path5506" /></g><path
     inkscape:connector-curvature="0"
     d="m 67343,29608 0,-787"
     id="path5508" /><g
     style="stroke-linecap:round"
     id="g5510"><path
       inkscape:connector-curvature="0"
       d="m 67343,28821 0,0"
       id="path5512" /></g><path
     inkscape:connector-curvature="0"
     d="m 67600,29608 0,-412"
     id="path5514" /><path
     inkscape:connector-curvature="0"
     d="m 67600,29196 -29,-75"
     id="path5516" /><path
     inkscape:connector-curvature="0"
     d="m 67571,29121 -57,-38"
     id="path5518" /><path
     inkscape:connector-curvature="0"
     d="m 67514,29083 -85,0"
     id="path5520" /><path
     inkscape:connector-curvature="0"
     d="m 67429,29083 -58,38"
     id="path5522" /><path
     inkscape:connector-curvature="0"
     d="m 67371,29121 -28,37"
     id="path5524" /><g
     style="stroke-linecap:round"
     id="g5526"><path
       inkscape:connector-curvature="0"
       d="m 67343,29158 0,0"
       id="path5528" /></g><path
     inkscape:connector-curvature="0"
     d="m 68114,29571 -57,37"
     id="path5530" /><path
     inkscape:connector-curvature="0"
     d="m 68057,29608 -114,0"
     id="path5532" /><path
     inkscape:connector-curvature="0"
     d="m 67943,29608 -57,-37"
     id="path5534" /><path
     inkscape:connector-curvature="0"
     d="m 67886,29571 -29,-75"
     id="path5536" /><path
     inkscape:connector-curvature="0"
     d="m 67857,29496 0,-300"
     id="path5538" /><path
     inkscape:connector-curvature="0"
     d="m 67857,29196 29,-75"
     id="path5540" /><path
     inkscape:connector-curvature="0"
     d="m 67886,29121 57,-38"
     id="path5542" /><path
     inkscape:connector-curvature="0"
     d="m 67943,29083 114,0"
     id="path5544" /><path
     inkscape:connector-curvature="0"
     d="m 68057,29083 57,38"
     id="path5546" /><path
     inkscape:connector-curvature="0"
     d="m 68114,29121 29,75"
     id="path5548" /><path
     inkscape:connector-curvature="0"
     d="m 68143,29196 0,75"
     id="path5550" /><path
     inkscape:connector-curvature="0"
     d="m 68143,29271 -286,75"
     id="path5552" /><g
     style="stroke-linecap:round"
     id="g5554"><path
       inkscape:connector-curvature="0"
       d="m 67857,29346 0,0"
       id="path5556" /></g><path
     inkscape:connector-curvature="0"
     d="m 68400,29608 0,-525"
     id="path5558" /><g
     style="stroke-linecap:round"
     id="g5560"><path
       inkscape:connector-curvature="0"
       d="m 68400,29083 0,0"
       id="path5562" /></g><path
     inkscape:connector-curvature="0"
     d="m 68400,29233 28,-75"
     id="path5564" /><path
     inkscape:connector-curvature="0"
     d="m 68428,29158 29,-37"
     id="path5566" /><path
     inkscape:connector-curvature="0"
     d="m 68457,29121 57,-38"
     id="path5568" /><path
     inkscape:connector-curvature="0"
     d="m 68514,29083 57,0"
     id="path5570" /><g
     style="stroke-linecap:round"
     id="g5572"><path
       inkscape:connector-curvature="0"
       d="m 68571,29083 0,0"
       id="path5574" /></g><path
     inkscape:connector-curvature="0"
     d="m 68999,29571 -57,37"
     id="path5576" /><path
     inkscape:connector-curvature="0"
     d="m 68942,29608 -114,0"
     id="path5578" /><path
     inkscape:connector-curvature="0"
     d="m 68828,29608 -57,-37"
     id="path5580" /><path
     inkscape:connector-curvature="0"
     d="m 68771,29571 -29,-75"
     id="path5582" /><path
     inkscape:connector-curvature="0"
     d="m 68742,29496 0,-300"
     id="path5584" /><path
     inkscape:connector-curvature="0"
     d="m 68742,29196 29,-75"
     id="path5586" /><path
     inkscape:connector-curvature="0"
     d="m 68771,29121 57,-38"
     id="path5588" /><path
     inkscape:connector-curvature="0"
     d="m 68828,29083 114,0"
     id="path5590" /><path
     inkscape:connector-curvature="0"
     d="m 68942,29083 57,38"
     id="path5592" /><path
     inkscape:connector-curvature="0"
     d="m 68999,29121 29,75"
     id="path5594" /><path
     inkscape:connector-curvature="0"
     d="m 69028,29196 0,75"
     id="path5596" /><path
     inkscape:connector-curvature="0"
     d="m 69028,29271 -286,75"
     id="path5598" /><g
     style="stroke-linecap:round"
     id="g5600"><path
       inkscape:connector-curvature="0"
       d="m 68742,29346 0,0"
       id="path5602" /></g></g><g
   style="fill:#c0c0c0;fill-opacity:0;stroke:#ff0000;stroke-width:3.93700783000000021;stroke-linecap:round;stroke-linejoin:round;stroke-opacity:1;stroke-miterlimit:4;stroke-dasharray:none"
   id="g5604"
   transform="matrix(0.0072,0,0,0.0072,-248.88906,-143.98867)"><path
     inkscape:connector-curvature="0"
     d="m 43900,37225 30,-65"
     id="path5606"
     style="stroke:#ff0000;stroke-opacity:1;stroke-width:3.93700783000000021;stroke-miterlimit:4;stroke-dasharray:none" /><path
     inkscape:connector-curvature="0"
     d="M 58300,37170 55230,61990"
     id="path5608"
     style="stroke:#ff0000;stroke-opacity:1;stroke-width:3.93700783000000021;stroke-miterlimit:4;stroke-dasharray:none" /><path
     inkscape:connector-curvature="0"
     d="m 55005,29895 -7815,15"
     id="path5610"
     style="stroke:#ff0000;stroke-opacity:1;stroke-width:3.93700783000000021;stroke-miterlimit:4;stroke-dasharray:none" /><path
     inkscape:connector-curvature="0"
     d="M 58305,37170 55005,29895"
     id="path5612"
     style="stroke:#ff0000;stroke-opacity:1;stroke-width:3.93700783000000021;stroke-miterlimit:4;stroke-dasharray:none" /><path
     inkscape:connector-curvature="0"
     d="m 43890,37180 3030,24800"
     id="path5614"
     style="stroke:#ff0000;stroke-opacity:1;stroke-width:3.93700783000000021;stroke-miterlimit:4;stroke-dasharray:none" /><path
     inkscape:connector-curvature="0"
     d="m 43920,37185 3285,-7305"
     id="path5616"
     style="stroke:#ff0000;stroke-opacity:1;stroke-width:3.93700783000000021;stroke-miterlimit:4;stroke-dasharray:none" /></g><g
   style="fill:#c0c0c0;fill-opacity:0;stroke:#0000c0;stroke-width:39;stroke-linecap:round;stroke-linejoin:round;stroke-opacity:1"
   id="g5618"
   transform="matrix(0.0072,0,0,0.0072,-248.88906,-143.98867)"><path
     inkscape:connector-curvature="0"
     d="m 42745,42835 16875,0"
     id="path5620" /><path
     inkscape:connector-curvature="0"
     d="m 42700,29890 16870,0"
     id="path5622" /><path
     inkscape:connector-curvature="0"
     d="m 58310,28770 0,15260"
     id="path5624" /><path
     inkscape:connector-curvature="0"
     d="m 43890,28735 0,15295"
     id="path5626" /></g><g
   style="fill:#c0c0c0;fill-opacity:0;stroke:#0000ff;stroke-width:3.93700783;stroke-linecap:round;stroke-linejoin:round;stroke-opacity:1;stroke-miterlimit:4;stroke-dasharray:none"
   id="g5628"
   transform="matrix(0.0072,0,0,0.0072,-248.88906,-143.98867)"><path
     inkscape:connector-curvature="0"
     d="m 43075,27875 16085,0"
     id="path5630"
     style="stroke:#0000ff;stroke-opacity:1;stroke-width:3.93700783;stroke-miterlimit:4;stroke-dasharray:none" /><path
     inkscape:connector-curvature="0"
     d="m 45055,68180 11990,0"
     id="path5632"
     style="stroke:#0000ff;stroke-opacity:1;stroke-width:3.93700783;stroke-miterlimit:4;stroke-dasharray:none" /></g><g
   style="fill:#c0c0c0;fill-opacity:0;stroke:#ffff00;stroke-width:8;stroke-linecap:round;stroke-linejoin:round;stroke-opacity:1"
   id="g6220"
   transform="matrix(0.0072,0,0,0.0072,-248.88906,-143.98867)" /><g
   style="fill:#c0c0c0;fill-opacity:0;stroke:#c0c0c0;stroke-width:39;stroke-linecap:round;stroke-linejoin:round;stroke-opacity:1"
   id="g6224"
   transform="matrix(0.0072,0,0,0.0072,-248.88906,-143.98867)"><path
     inkscape:connector-curvature="0"
     d="m 42700,28700 35,15365"
     id="path6226" /><path
     inkscape:connector-curvature="0"
     d="m 47180,28735 -4480,-35"
     id="path6228" /><path
     inkscape:connector-curvature="0"
     d="m 59605,44030 -16790.682,0"
     id="path6230"
     sodipodi:nodetypes="cc"
     style="stroke-width:38.84237671" /><path
     inkscape:connector-curvature="0"
     d="m 59535,28735 70,15295"
     id="path6232" /><path
     inkscape:connector-curvature="0"
     d="m 47145,28735 12390,0"
     id="path6234" /></g><g
   style="fill:#c0c0c0;fill-opacity:0;stroke:#ff0000;stroke-width:3.93700783000000021;stroke-linecap:round;stroke-linejoin:round;stroke-opacity:1;stroke-miterlimit:4;stroke-dasharray:none"
   id="g6236"
   transform="matrix(0.0072,0,0,0.0072,-248.88906,-143.98867)"><path
     inkscape:connector-curvature="0"
     d="m 55240,61990 -8325,-15"
     id="path6238"
     style="stroke-width:3.93700783000000021;stroke-miterlimit:4;stroke-dasharray:none;stroke:#ff0000;stroke-opacity:1" /></g><g
   style="fill:#c0c0c0;fill-opacity:0;stroke:#0000c0;stroke-width:0;stroke-linecap:round;stroke-linejoin:round;stroke-opacity:1"
   id="g6240"
   transform="matrix(0.0072,0,0,0.0072,-248.88906,-143.98867)"><path
     inkscape:connector-curvature="0"
     d="m 37519,33368 4,0"
     id="path6242" /><path
     inkscape:connector-curvature="0"
     d="m 37521,33366 0,4"
     id="path6244" /></g><path
   style="fill:#c0c0c0;fill-opacity:0;stroke:#0000ff;stroke-width:0.02834646;stroke-linecap:round;stroke-linejoin:round;stroke-miterlimit:4;stroke-opacity:1;stroke-dasharray:none"
   id="path6496"
   d="M 61.263704,56.557992 32.77494,128.60333"
   inkscape:connector-curvature="0"
   sodipodi:nodetypes="cc" /><path
   style="fill:#c0c0c0;fill-opacity:0;stroke:#0000ff;stroke-width:0.02834646;stroke-linecap:round;stroke-linejoin:round;stroke-miterlimit:4;stroke-opacity:1;stroke-dasharray:none"
   id="path6498"
   d="M 32.77494,128.60333 75.59875,346.78619"
   inkscape:connector-curvature="0"
   sodipodi:nodetypes="cc" /><path
   style="fill:#c0c0c0;fill-opacity:0;stroke:#0000ff;stroke-width:0.02834646;stroke-linecap:round;stroke-linejoin:round;stroke-miterlimit:4;stroke-opacity:1;stroke-dasharray:none"
   id="path6502"
   d="M 205.25094,128.81933 177.49113,56.557992"
   inkscape:connector-curvature="0"
   sodipodi:nodetypes="cc" /><path
   style="fill:#c0c0c0;fill-opacity:0;stroke:#0000ff;stroke-width:0.02834646;stroke-linecap:round;stroke-linejoin:round;stroke-miterlimit:4;stroke-opacity:1;stroke-dasharray:none"
   id="path6510"
   d="M 161.84655,346.77266 205.25094,128.81933"
   inkscape:connector-curvature="0"
   sodipodi:nodetypes="cc" /><g
   style="fill:none;fill-opacity:1;stroke:#0000ff;stroke-width:3.93700783;stroke-linecap:round;stroke-linejoin:round;stroke-opacity:1;stroke-miterlimit:4;stroke-dasharray:none"
   id="g6518"
   transform="matrix(0.0072,0,0,0.0072,-248.88906,-143.98867)"><ellipse
     d="m 56496,63189 c 0,239.139 -193.861,433 -433,433 -239.139,0 -433,-193.861 -433,-433 0,-239.139 193.861,-433 433,-433 239.139,0 433,193.861 433,433 z"
     sodipodi:ry="433"
     sodipodi:rx="433"
     sodipodi:cy="63189"
     sodipodi:cx="56063"
     cx="56063"
     cy="63189"
     rx="433"
     ry="433"
     id="ellipse6520"
     style="fill:none;stroke:#0000ff;stroke-opacity:1;stroke-width:3.93700783;stroke-miterlimit:4;stroke-dasharray:none" /></g><g
   style="fill:none;fill-opacity:1;stroke:#0000ff;stroke-width:3.93700783000000021;stroke-linecap:round;stroke-linejoin:round;stroke-opacity:1;stroke-miterlimit:4;stroke-dasharray:none"
   id="g6614"
   transform="matrix(0.0072,0,0,0.0072,-248.88906,-143.98867)"><ellipse
     d="m 46496,63189 c 0,239.139 -193.861,433 -433,433 -239.139,0 -433,-193.861 -433,-433 0,-239.139 193.861,-433 433,-433 239.139,0 433,193.861 433,433 z"
     sodipodi:ry="433"
     sodipodi:rx="433"
     sodipodi:cy="63189"
     sodipodi:cx="46063"
     cx="46063"
     cy="63189"
     rx="433"
     ry="433"
     id="ellipse6616"
     style="stroke-width:3.93700783000000021;stroke-miterlimit:4;stroke-dasharray:none;stroke:#0000ff;stroke-opacity:1;fill:none" /></g><g
   style="fill:#ffffff;fill-opacity:1;stroke:#0000c0;stroke-width:0;stroke-linecap:round;stroke-linejoin:round;stroke-opacity:1"
   id="g6622"
   transform="matrix(0.0072,0,0,0.0072,-248.88906,-143.98867)"><path
     inkscape:connector-curvature="0"
     d="m 46061,62189 4,0"
     id="path6624" /><path
     inkscape:connector-curvature="0"
     d="m 46063,62187 0,4"
     id="path6626" /></g><g
   style="fill:none;fill-opacity:1;stroke:#0000ff;stroke-width:3.93700783000000021;stroke-linecap:round;stroke-linejoin:round;stroke-opacity:1;stroke-miterlimit:4;stroke-dasharray:none"
   id="g6710"
   transform="matrix(0.0072,0,0,0.0072,-248.88906,-143.98867)"><ellipse
     d="m 41663,37800 c 0,239.139 -193.861,433 -433,433 -239.139,0 -433,-193.861 -433,-433 0,-239.139 193.861,-433 433,-433 239.139,0 433,193.861 433,433 z"
     sodipodi:ry="433"
     sodipodi:rx="433"
     sodipodi:cy="37800"
     sodipodi:cx="41230"
     cx="41230"
     cy="37800"
     rx="433"
     ry="433"
     id="ellipse6712"
     style="stroke-width:3.93700783000000021;stroke-miterlimit:4;stroke-dasharray:none;stroke:#0000ff;stroke-opacity:1;fill:none" /></g><g
   style="fill:#ffffff;fill-opacity:1;stroke:#0000c0;stroke-width:0;stroke-linecap:round;stroke-linejoin:round;stroke-opacity:1"
   id="g6718"
   transform="matrix(0.0072,0,0,0.0072,-248.88906,-143.98867)"><path
     inkscape:connector-curvature="0"
     d="m 41228,36800 4,0"
     id="path6720" /><path
     inkscape:connector-curvature="0"
     d="m 41230,36798 0,4"
     id="path6722" /></g><g
   style="fill:none;fill-opacity:1;stroke:#0000ff;stroke-width:3.93700783;stroke-linecap:round;stroke-linejoin:round;stroke-opacity:1;stroke-miterlimit:4;stroke-dasharray:none"
   id="g6806"
   transform="matrix(0.0072,0,0,0.0072,-248.88906,-143.98867)"><ellipse
     d="m 61339,37795 c 0,239.139 -193.861,433 -433,433 -239.139,0 -433,-193.861 -433,-433 0,-239.139 193.861,-433 433,-433 239.139,0 433,193.861 433,433 z"
     sodipodi:ry="433"
     sodipodi:rx="433"
     sodipodi:cy="37795"
     sodipodi:cx="60906"
     cx="60906"
     cy="37795"
     rx="433"
     ry="433"
     id="ellipse6808"
     style="fill:none;stroke:#0000ff;stroke-opacity:1;stroke-width:3.93700783;stroke-miterlimit:4;stroke-dasharray:none" /></g><g
   style="fill:#ffffff;fill-opacity:1;stroke:#0000c0;stroke-width:0;stroke-linecap:round;stroke-linejoin:round;stroke-opacity:1"
   id="g6814"
   transform="matrix(0.0072,0,0,0.0072,-248.88906,-143.98867)"><path
     inkscape:connector-curvature="0"
     d="m 60904,36795 4,0"
     id="path6816" /><path
     inkscape:connector-curvature="0"
     d="m 60906,36793 0,4"
     id="path6818" /></g><g
   style="fill:none;fill-opacity:1;stroke:#0000ff;stroke-width:3.93700783000000021;stroke-linecap:round;stroke-linejoin:round;stroke-opacity:1;stroke-miterlimit:4;stroke-dasharray:none"
   id="g6820"
   transform="matrix(0.0072,0,0,0.0072,-248.88906,-143.98867)"><ellipse
     d="m 48326,46457 c 0,706.372 -572.628,1279 -1279,1279 -706.372,0 -1279,-572.628 -1279,-1279 0,-706.372 572.628,-1279 1279,-1279 706.372,0 1279,572.628 1279,1279 z"
     sodipodi:ry="1279"
     sodipodi:rx="1279"
     sodipodi:cy="46457"
     sodipodi:cx="47047"
     cx="47047"
     cy="46457"
     rx="1279"
     ry="1279"
     id="ellipse6822"
     style="stroke-width:3.93700783000000021;stroke-miterlimit:4;stroke-dasharray:none;stroke:#0000ff;stroke-opacity:1;fill:none" /></g><g
   style="fill:#ffffff;fill-opacity:1;stroke:#0000c0;stroke-width:0;stroke-linecap:round;stroke-linejoin:round;stroke-opacity:1"
   id="g6828"
   transform="matrix(0.0072,0,0,0.0072,-248.88906,-143.98867)"><path
     inkscape:connector-curvature="0"
     d="m 47045,45457 4,0"
     id="path6830" /><path
     inkscape:connector-curvature="0"
     d="m 47047,45455 0,4"
     id="path6832" /></g><g
   style="fill:none;fill-opacity:1;stroke:#0000ff;stroke-width:3.93700783;stroke-linecap:round;stroke-linejoin:round;stroke-opacity:1;stroke-miterlimit:4;stroke-dasharray:none"
   id="g6834"
   transform="matrix(0.0072,0,0,0.0072,-248.88906,-143.98867)"><ellipse
     d="m 56373,46457 c 0,706.372 -572.628,1279 -1279,1279 -706.372,0 -1279,-572.628 -1279,-1279 0,-706.372 572.628,-1279 1279,-1279 706.372,0 1279,572.628 1279,1279 z"
     sodipodi:ry="1279"
     sodipodi:rx="1279"
     sodipodi:cy="46457"
     sodipodi:cx="55094"
     cx="55094"
     cy="46457"
     rx="1279"
     ry="1279"
     id="ellipse6836"
     style="fill:none;stroke:#0000ff;stroke-opacity:1;stroke-width:3.93700783;stroke-miterlimit:4;stroke-dasharray:none" /></g><g
   style="fill:#ffffff;fill-opacity:1;stroke:#0000c0;stroke-width:0;stroke-linecap:round;stroke-linejoin:round;stroke-opacity:1"
   id="g6842"
   transform="matrix(0.0072,0,0,0.0072,-248.88906,-143.98867)"><path
     inkscape:connector-curvature="0"
     d="m 55092,45457 4,0"
     id="path6844" /><path
     inkscape:connector-curvature="0"
     d="m 55094,45455 0,4"
     id="path6846" /></g><g
   style="fill:none;fill-opacity:1;stroke:#0000ff;stroke-width:3.93700783000000021;stroke-linecap:round;stroke-linejoin:round;stroke-opacity:1;stroke-miterlimit:4;stroke-dasharray:none"
   id="g6848"
   transform="matrix(0.0072,0,0,0.0072,-248.88906,-143.98867)"><ellipse
     d="m 52342,49661 c 0,706.372 -572.628,1279 -1279,1279 -706.372,0 -1279,-572.628 -1279,-1279 0,-706.372 572.628,-1279 1279,-1279 706.372,0 1279,572.628 1279,1279 z"
     sodipodi:ry="1279"
     sodipodi:rx="1279"
     sodipodi:cy="49661"
     sodipodi:cx="51063"
     cx="51063"
     cy="49661"
     rx="1279"
     ry="1279"
     id="ellipse6850"
     style="stroke-width:3.93700783000000021;stroke-miterlimit:4;stroke-dasharray:none;stroke:#0000ff;stroke-opacity:1;fill:none" /></g><g
   style="fill:#ffffff;fill-opacity:1;stroke:#0000c0;stroke-width:0;stroke-linecap:round;stroke-linejoin:round;stroke-opacity:1"
   id="g6856"
   transform="matrix(0.0072,0,0,0.0072,-248.88906,-143.98867)"><path
     inkscape:connector-curvature="0"
     d="m 51061,48661 4,0"
     id="path6858" /><path
     inkscape:connector-curvature="0"
     d="m 51063,48659 0,4"
     id="path6860" /></g><g
   style="fill:none;fill-opacity:1;stroke:#0000ff;stroke-width:3.93700783;stroke-linecap:round;stroke-linejoin:round;stroke-opacity:1;stroke-miterlimit:4;stroke-dasharray:none"
   id="g6862"
   transform="matrix(0.0072,0,0,0.0072,-248.88906,-143.98867)"><ellipse
     d="m 49507,54134 c 0,706.372 -572.628,1279 -1279,1279 -706.372,0 -1279,-572.628 -1279,-1279 0,-706.372 572.628,-1279 1279,-1279 706.372,0 1279,572.628 1279,1279 z"
     sodipodi:ry="1279"
     sodipodi:rx="1279"
     sodipodi:cy="54134"
     sodipodi:cx="48228"
     cx="48228"
     cy="54134"
     rx="1279"
     ry="1279"
     id="ellipse6864"
     style="fill:none;fill-opacity:1;stroke:#0000ff;stroke-opacity:1;stroke-width:3.93700783;stroke-miterlimit:4;stroke-dasharray:none" /></g><g
   style="fill:#ffffff;fill-opacity:1;stroke:#0000c0;stroke-width:0;stroke-linecap:round;stroke-linejoin:round;stroke-opacity:1"
   id="g6870"
   transform="matrix(0.0072,0,0,0.0072,-248.88906,-143.98867)"><path
     inkscape:connector-curvature="0"
     d="m 48226,53134 4,0"
     id="path6872" /><path
     inkscape:connector-curvature="0"
     d="m 48228,53132 0,4"
     id="path6874" /></g><g
   style="fill:none;fill-opacity:1;stroke:#0000ff;stroke-width:3.93700783000000021;stroke-linecap:round;stroke-linejoin:round;stroke-opacity:1;stroke-miterlimit:4;stroke-dasharray:none"
   id="g6876"
   transform="matrix(0.0072,0,0,0.0072,-248.88906,-143.98867)"><ellipse
     d="m 55177,54134 c 0,706.372 -572.628,1279 -1279,1279 -706.372,0 -1279,-572.628 -1279,-1279 0,-706.372 572.628,-1279 1279,-1279 706.372,0 1279,572.628 1279,1279 z"
     sodipodi:ry="1279"
     sodipodi:rx="1279"
     sodipodi:cy="54134"
     sodipodi:cx="53898"
     cx="53898"
     cy="54134"
     rx="1279"
     ry="1279"
     id="ellipse6878"
     style="stroke-width:3.93700783000000021;stroke-miterlimit:4;stroke-dasharray:none;stroke:#0000ff;stroke-opacity:1;fill:none" /></g><g
   style="fill:#ffffff;fill-opacity:1;stroke:#0000c0;stroke-width:0;stroke-linecap:round;stroke-linejoin:round;stroke-opacity:1"
   id="g6884"
   transform="matrix(0.0072,0,0,0.0072,-248.88906,-143.98867)"><path
     inkscape:connector-curvature="0"
     d="m 53896,53134 4,0"
     id="path6886" /><path
     inkscape:connector-curvature="0"
     d="m 53898,53132 0,4"
     id="path6888" /></g><g
   style="fill:none;fill-opacity:1;stroke:#0000ff;stroke-width:3.93700783;stroke-linecap:round;stroke-linejoin:round;stroke-opacity:1;stroke-miterlimit:4;stroke-dasharray:none"
   id="g6890"
   transform="matrix(0.0072,0,0,0.0072,-248.88906,-143.98867)"><ellipse
     d="m 52830,58508 c 0,989.142 -801.858,1791 -1791,1791 -989.142,0 -1791,-801.858 -1791,-1791 0,-989.142 801.858,-1791 1791,-1791 989.142,0 1791,801.858 1791,1791 z"
     sodipodi:ry="1791"
     sodipodi:rx="1791"
     sodipodi:cy="58508"
     sodipodi:cx="51039"
     cx="51039"
     cy="58508"
     rx="1791"
     ry="1791"
     id="ellipse6892"
     style="fill:none;stroke:#0000ff;stroke-opacity:1;stroke-width:3.93700783;stroke-miterlimit:4;stroke-dasharray:none" /></g><g
   style="fill:#ffffff;fill-opacity:1;stroke:#0000c0;stroke-width:0;stroke-linecap:round;stroke-linejoin:round;stroke-opacity:1"
   id="g6898"
   transform="matrix(0.0072,0,0,0.0072,-248.88906,-143.98867)"><path
     inkscape:connector-curvature="0"
     d="m 51037,57508 4,0"
     id="path6900" /><path
     inkscape:connector-curvature="0"
     d="m 51039,57506 0,4"
     id="path6902" /></g><g
   id="g10681"
   transform="translate(31.464567,-41.470705)"><g
     id="g10676"><g
       id="g3893"
       style="stroke:#ff0000;stroke-width:0.02834646;stroke-miterlimit:4;stroke-opacity:1;stroke-dasharray:none"><g
         id="g3447"
         style="stroke:#ff0000;stroke-width:0.02834646;stroke-miterlimit:4;stroke-opacity:1;stroke-dasharray:none"><path
           sodipodi:type="star"
           style="fill:none;stroke:#ff0000;stroke-width:0.0257764;stroke-miterlimit:4;stroke-opacity:1;stroke-dasharray:none"
           id="path3887"
           sodipodi:sides="3"
           sodipodi:cx="88.58268"
           sodipodi:cy="38.974743"
           sodipodi:r1="20.641151"
           sodipodi:r2="10.320391"
           sodipodi:arg1="0.53882658"
           sodipodi:arg2="1.5847985"
           inkscape:flatsided="false"
           inkscape:rounded="0"
           inkscape:randomized="0"
           d="m 106.29922,49.56632 -17.861043,-0.272198 -17.88634,-0.272198 9.16625,-15.332014 9.1789,-15.353925 8.694789,15.604212 z"
           transform="matrix(-1.0286144,0.01881343,-0.02149664,-1.1753176,180.57036,199.85881)"
           inkscape:transform-center-x="0.075244755"
           inkscape:transform-center-y="7.5719767" /></g></g></g><g
     style="stroke:#ff0000;stroke-width:0.00808165;stroke-miterlimit:4;stroke-opacity:1;stroke-dasharray:none"
     transform="matrix(1,0,0,-12.302605,0,2118.3831)"
     id="g3897"><g
       style="stroke:#ff0000;stroke-width:0.00808165;stroke-miterlimit:4;stroke-opacity:1;stroke-dasharray:none"
       id="g3450"><path
         inkscape:connector-curvature="0"
         id="path4793"
         d="m 69.49882,159.19574 36.74724,0"
         style="fill:none;stroke:#ff0000;stroke-width:0.00808165;stroke-linecap:butt;stroke-linejoin:miter;stroke-miterlimit:4;stroke-opacity:1;stroke-dasharray:none" /></g></g></g><rect
   style="fill:none;stroke:#0000ff;stroke-width:0.02834646;stroke-miterlimit:4;stroke-opacity:1;stroke-dasharray:none"
   id="rect11653"
   width="28.263706"
   height="8.4222479"
   x="105.21535"
   y="62.973396" /><rect
   style="fill:none;stroke:#0000ff;stroke-width:0.02834646;stroke-miterlimit:4;stroke-opacity:1;stroke-dasharray:none"
   id="rect11655"
   width="28.266758"
   height="8.4222479"
   x="105.21535"
   y="164.35513" /><rect
   style="fill:none;stroke:#0000ff;stroke-width:0.02834646;stroke-miterlimit:4;stroke-opacity:1;stroke-dasharray:none"
   id="rect11657"
   width="8.4246054"
   height="28.264284"
   x="58.758694"
   y="103.92062" /><rect
   style="fill:none;stroke:#0000ff;stroke-width:0.01817533;stroke-miterlimit:4;stroke-opacity:1;stroke-dasharray:none"
   id="rect11659"
   width="8.4331245"
   height="28.285898"
   x="171.25163"
   y="103.899" /></svg>