<?xml version="1.0" standalone="no"?>
<!DOCTYPE svg PUBLIC "-//W3C//DTD SVG 1.1//EN" 
"http://www.w3.org/Graphics/SVG/1.1/DTD/svg11.dtd"> 
<svg
  xmlns="http://www.w3.org/2000/svg"
  version="1.1"
  width="11.7in" height="8.267in" viewBox="0 0 117000 82670 "
>
  <title>SVG Picture created as vampire_panel_for_svg-brd.svg </title>
  <desc>Picture generated by wxSVG v0101 </desc>
  <g style="fill:black; stroke:black; stroke-width:1">
</g>
<g style="fill:#000000; fill-opacity:0.0; 
  stroke:#0000C0; stroke-linecap:round; stroke-linejoin:round; stroke-opacity:1.0; stroke-opacity:1.0; stroke-width:0" 
   transform="translate(0 0) scale(1 1)">
<path d="M51298 33190 L51302 33190" /> 
<path d="M51300 33188 L51300 33192" /> 
</g>
<g style="fill:#C0C0C0; fill-opacity:0.0; 
  stroke:#C0C0C0; stroke-linecap:round; stroke-linejoin:round; stroke-opacity:1.0; stroke-opacity:1.0; stroke-width:39" 
   transform="translate(0 0) scale(1 1)">
<path d="M49157 33471 L49100 33508" /> 
<path d="M49100 33508 L48986 33508" /> 
<path d="M48986 33508 L48929 33471" /> 
<path d="M48929 33471 L48900 33396" /> 
<path d="M48900 33396 L48900 33096" /> 
<path d="M48900 33096 L48929 33021" /> 
<path d="M48929 33021 L48986 32983" /> 
<path d="M48986 32983 L49100 32983" /> 
<path d="M49100 32983 L49157 33021" /> 
<path d="M49157 33021 L49186 33096" /> 
<path d="M49186 33096 L49186 33171" /> 
<path d="M49186 33171 L48900 33246" /> 
<g style = "stroke-linecap:round;" > 
<path d="M48900 33246 L48900 33246" /> 
</g><path d="M49443 33508 L49443 32983" /> 
<g style = "stroke-linecap:round;" > 
<path d="M49443 32983 L49443 32983" /> 
</g><path d="M49443 33133 L49471 33058" /> 
<path d="M49471 33058 L49500 33021" /> 
<path d="M49500 33021 L49557 32983" /> 
<path d="M49557 32983 L49614 32983" /> 
<g style = "stroke-linecap:round;" > 
<path d="M49614 32983 L49614 32983" /> 
</g><path d="M50071 33508 L50071 32721" /> 
<g style = "stroke-linecap:round;" > 
<path d="M50071 32721 L50071 32721" /> 
</g><path d="M50071 33471 L50014 33508" /> 
<path d="M50014 33508 L49900 33508" /> 
<path d="M49900 33508 L49842 33471" /> 
<path d="M49842 33471 L49814 33433" /> 
<path d="M49814 33433 L49785 33358" /> 
<path d="M49785 33358 L49785 33133" /> 
<path d="M49785 33133 L49814 33058" /> 
<path d="M49814 33058 L49842 33021" /> 
<path d="M49842 33021 L49900 32983" /> 
<path d="M49900 32983 L50014 32983" /> 
<path d="M50014 32983 L50071 33021" /> 
<g style = "stroke-linecap:round;" > 
<path d="M50071 33021 L50071 33021" /> 
</g><path d="M50785 33471 L50842 33508" /> 
<path d="M50842 33508 L50957 33508" /> 
<path d="M50957 33508 L51014 33471" /> 
<path d="M51014 33471 L51042 33396" /> 
<path d="M51042 33396 L51042 33358" /> 
<path d="M51042 33358 L51014 33283" /> 
<path d="M51014 33283 L50957 33246" /> 
<path d="M50957 33246 L50871 33246" /> 
<path d="M50871 33246 L50814 33208" /> 
<path d="M50814 33208 L50785 33133" /> 
<path d="M50785 33133 L50785 33096" /> 
<path d="M50785 33096 L50814 33021" /> 
<path d="M50814 33021 L50871 32983" /> 
<path d="M50871 32983 L50957 32983" /> 
<path d="M50957 32983 L51014 33021" /> 
<g style = "stroke-linecap:round;" > 
<path d="M51014 33021 L51014 33021" /> 
</g><path d="M51243 32983 L51386 33508" /> 
<g style = "stroke-linecap:round;" > 
<path d="M51386 33508 L51386 33508" /> 
</g><path d="M51528 32983 L51386 33508" /> 
<path d="M51386 33508 L51328 33695" /> 
<path d="M51328 33695 L51300 33733" /> 
<path d="M51300 33733 L51243 33770" /> 
<g style = "stroke-linecap:round;" > 
<path d="M51243 33770 L51243 33770" /> 
</g><path d="M51757 33508 L51757 32983" /> 
<g style = "stroke-linecap:round;" > 
<path d="M51757 32983 L51757 32983" /> 
</g><path d="M51757 33058 L51785 33021" /> 
<path d="M51785 33021 L51843 32983" /> 
<path d="M51843 32983 L51928 32983" /> 
<path d="M51928 32983 L51985 33021" /> 
<path d="M51985 33021 L52014 33096" /> 
<path d="M52014 33096 L52014 33508" /> 
<g style = "stroke-linecap:round;" > 
<path d="M52014 33508 L52014 33508" /> 
</g><path d="M52014 33096 L52043 33021" /> 
<path d="M52043 33021 L52100 32983" /> 
<path d="M52100 32983 L52185 32983" /> 
<path d="M52185 32983 L52243 33021" /> 
<path d="M52243 33021 L52271 33096" /> 
<path d="M52271 33096 L52271 33508" /> 
<g style = "stroke-linecap:round;" > 
<path d="M52271 33508 L52271 33508" /> 
</g><path d="M52557 33508 L52557 32721" /> 
<g style = "stroke-linecap:round;" > 
<path d="M52557 32721 L52557 32721" /> 
</g><path d="M52557 33021 L52614 32983" /> 
<path d="M52614 32983 L52728 32983" /> 
<path d="M52728 32983 L52785 33021" /> 
<path d="M52785 33021 L52814 33058" /> 
<path d="M52814 33058 L52843 33133" /> 
<path d="M52843 33133 L52843 33358" /> 
<path d="M52843 33358 L52814 33433" /> 
<path d="M52814 33433 L52785 33471" /> 
<path d="M52785 33471 L52728 33508" /> 
<path d="M52728 33508 L52614 33508" /> 
<path d="M52614 33508 L52557 33471" /> 
<g style = "stroke-linecap:round;" > 
<path d="M52557 33471 L52557 33471" /> 
</g><path d="M53186 33508 L53128 33471" /> 
<path d="M53128 33471 L53100 33433" /> 
<path d="M53100 33433 L53071 33358" /> 
<path d="M53071 33358 L53071 33133" /> 
<path d="M53071 33133 L53100 33058" /> 
<path d="M53100 33058 L53128 33021" /> 
<path d="M53128 33021 L53186 32983" /> 
<path d="M53186 32983 L53271 32983" /> 
<path d="M53271 32983 L53328 33021" /> 
<path d="M53328 33021 L53357 33058" /> 
<path d="M53357 33058 L53386 33133" /> 
<path d="M53386 33133 L53386 33358" /> 
<path d="M53386 33358 L53357 33433" /> 
<path d="M53357 33433 L53328 33471" /> 
<path d="M53328 33471 L53271 33508" /> 
<path d="M53271 33508 L53186 33508" /> 
<path d="M53729 33508 L53671 33471" /> 
<path d="M53671 33471 L53643 33396" /> 
<path d="M53643 33396 L53643 32721" /> 
<g style = "stroke-linecap:round;" > 
<path d="M53643 32721 L53643 32721" /> 
</g></g>
<g style="fill:#C0C0C0; fill-opacity:0.0; 
  stroke:#0000C0; stroke-linecap:round; stroke-linejoin:round; stroke-opacity:1.0; stroke-opacity:1.0; stroke-width:0" 
   transform="translate(0 0) scale(1 1)">
<path d="M64983 29290 L64987 29290" /> 
<path d="M64985 29288 L64985 29292" /> 
</g>
<g style="fill:#C0C0C0; fill-opacity:0.0; 
  stroke:#C0C0C0; stroke-linecap:round; stroke-linejoin:round; stroke-opacity:1.0; stroke-opacity:1.0; stroke-width:39" 
   transform="translate(0 0) scale(1 1)">
<path d="M60942 29571 L60999 29608" /> 
<path d="M60999 29608 L61114 29608" /> 
<path d="M61114 29608 L61171 29571" /> 
<path d="M61171 29571 L61199 29496" /> 
<path d="M61199 29496 L61199 29458" /> 
<path d="M61199 29458 L61171 29383" /> 
<path d="M61171 29383 L61114 29346" /> 
<path d="M61114 29346 L61028 29346" /> 
<path d="M61028 29346 L60971 29308" /> 
<path d="M60971 29308 L60942 29233" /> 
<path d="M60942 29233 L60942 29196" /> 
<path d="M60942 29196 L60971 29121" /> 
<path d="M60971 29121 L61028 29083" /> 
<path d="M61028 29083 L61114 29083" /> 
<path d="M61114 29083 L61171 29121" /> 
<g style = "stroke-linecap:round;" > 
<path d="M61171 29121 L61171 29121" /> 
</g><path d="M61543 29608 L61485 29571" /> 
<path d="M61485 29571 L61457 29496" /> 
<path d="M61457 29496 L61457 28821" /> 
<g style = "stroke-linecap:round;" > 
<path d="M61457 28821 L61457 28821" /> 
</g><path d="M61857 29608 L61799 29571" /> 
<path d="M61799 29571 L61771 29533" /> 
<path d="M61771 29533 L61742 29458" /> 
<path d="M61742 29458 L61742 29233" /> 
<path d="M61742 29233 L61771 29158" /> 
<path d="M61771 29158 L61799 29121" /> 
<path d="M61799 29121 L61857 29083" /> 
<path d="M61857 29083 L61942 29083" /> 
<path d="M61942 29083 L61999 29121" /> 
<path d="M61999 29121 L62028 29158" /> 
<path d="M62028 29158 L62057 29233" /> 
<path d="M62057 29233 L62057 29458" /> 
<path d="M62057 29458 L62028 29533" /> 
<path d="M62028 29533 L61999 29571" /> 
<path d="M61999 29571 L61942 29608" /> 
<path d="M61942 29608 L61857 29608" /> 
<path d="M62228 29083 L62457 29083" /> 
<g style = "stroke-linecap:round;" > 
<path d="M62457 29083 L62457 29083" /> 
</g><path d="M62314 28821 L62314 29496" /> 
<path d="M62314 29496 L62342 29571" /> 
<path d="M62342 29571 L62400 29608" /> 
<path d="M62400 29608 L62457 29608" /> 
<g style = "stroke-linecap:round;" > 
<path d="M62457 29608 L62457 29608" /> 
</g><path d="M62628 29571 L62685 29608" /> 
<path d="M62685 29608 L62800 29608" /> 
<path d="M62800 29608 L62857 29571" /> 
<path d="M62857 29571 L62885 29496" /> 
<path d="M62885 29496 L62885 29458" /> 
<path d="M62885 29458 L62857 29383" /> 
<path d="M62857 29383 L62800 29346" /> 
<path d="M62800 29346 L62714 29346" /> 
<path d="M62714 29346 L62657 29308" /> 
<path d="M62657 29308 L62628 29233" /> 
<path d="M62628 29233 L62628 29196" /> 
<path d="M62628 29196 L62657 29121" /> 
<path d="M62657 29121 L62714 29083" /> 
<path d="M62714 29083 L62800 29083" /> 
<path d="M62800 29083 L62857 29121" /> 
<g style = "stroke-linecap:round;" > 
<path d="M62857 29121 L62857 29121" /> 
</g><path d="M63514 29083 L63743 29083" /> 
<g style = "stroke-linecap:round;" > 
<path d="M63743 29083 L63743 29083" /> 
</g><path d="M63600 29608 L63600 28933" /> 
<path d="M63600 28933 L63628 28859" /> 
<path d="M63628 28859 L63686 28821" /> 
<path d="M63686 28821 L63743 28821" /> 
<g style = "stroke-linecap:round;" > 
<path d="M63743 28821 L63743 28821" /> 
</g><path d="M64029 29608 L63971 29571" /> 
<path d="M63971 29571 L63943 29533" /> 
<path d="M63943 29533 L63914 29458" /> 
<path d="M63914 29458 L63914 29233" /> 
<path d="M63914 29233 L63943 29158" /> 
<path d="M63943 29158 L63971 29121" /> 
<path d="M63971 29121 L64029 29083" /> 
<path d="M64029 29083 L64114 29083" /> 
<path d="M64114 29083 L64171 29121" /> 
<path d="M64171 29121 L64200 29158" /> 
<path d="M64200 29158 L64229 29233" /> 
<path d="M64229 29233 L64229 29458" /> 
<path d="M64229 29458 L64200 29533" /> 
<path d="M64200 29533 L64171 29571" /> 
<path d="M64171 29571 L64114 29608" /> 
<path d="M64114 29608 L64029 29608" /> 
<path d="M64486 29608 L64486 29083" /> 
<g style = "stroke-linecap:round;" > 
<path d="M64486 29083 L64486 29083" /> 
</g><path d="M64486 29233 L64514 29158" /> 
<path d="M64514 29158 L64543 29121" /> 
<path d="M64543 29121 L64600 29083" /> 
<path d="M64600 29083 L64657 29083" /> 
<g style = "stroke-linecap:round;" > 
<path d="M64657 29083 L64657 29083" /> 
</g><path d="M65314 29608 L65314 28821" /> 
<g style = "stroke-linecap:round;" > 
<path d="M65314 28821 L65314 28821" /> 
</g><path d="M65314 29121 L65371 29083" /> 
<path d="M65371 29083 L65485 29083" /> 
<path d="M65485 29083 L65542 29121" /> 
<path d="M65542 29121 L65571 29158" /> 
<path d="M65571 29158 L65600 29233" /> 
<path d="M65600 29233 L65600 29458" /> 
<path d="M65600 29458 L65571 29533" /> 
<path d="M65571 29533 L65542 29571" /> 
<path d="M65542 29571 L65485 29608" /> 
<path d="M65485 29608 L65371 29608" /> 
<path d="M65371 29608 L65314 29571" /> 
<g style = "stroke-linecap:round;" > 
<path d="M65314 29571 L65314 29571" /> 
</g><path d="M65943 29608 L65885 29571" /> 
<path d="M65885 29571 L65857 29533" /> 
<path d="M65857 29533 L65828 29458" /> 
<path d="M65828 29458 L65828 29233" /> 
<path d="M65828 29233 L65857 29158" /> 
<path d="M65857 29158 L65885 29121" /> 
<path d="M65885 29121 L65943 29083" /> 
<path d="M65943 29083 L66028 29083" /> 
<path d="M66028 29083 L66085 29121" /> 
<path d="M66085 29121 L66114 29158" /> 
<path d="M66114 29158 L66143 29233" /> 
<path d="M66143 29233 L66143 29458" /> 
<path d="M66143 29458 L66114 29533" /> 
<path d="M66114 29533 L66085 29571" /> 
<path d="M66085 29571 L66028 29608" /> 
<path d="M66028 29608 L65943 29608" /> 
<path d="M66343 29608 L66657 29083" /> 
<g style = "stroke-linecap:round;" > 
<path d="M66657 29083 L66657 29083" /> 
</g><path d="M66343 29083 L66657 29608" /> 
<g style = "stroke-linecap:round;" > 
<path d="M66657 29608 L66657 29608" /> 
</g><path d="M67343 29608 L67343 28821" /> 
<g style = "stroke-linecap:round;" > 
<path d="M67343 28821 L67343 28821" /> 
</g><path d="M67600 29608 L67600 29196" /> 
<path d="M67600 29196 L67571 29121" /> 
<path d="M67571 29121 L67514 29083" /> 
<path d="M67514 29083 L67429 29083" /> 
<path d="M67429 29083 L67371 29121" /> 
<path d="M67371 29121 L67343 29158" /> 
<g style = "stroke-linecap:round;" > 
<path d="M67343 29158 L67343 29158" /> 
</g><path d="M68114 29571 L68057 29608" /> 
<path d="M68057 29608 L67943 29608" /> 
<path d="M67943 29608 L67886 29571" /> 
<path d="M67886 29571 L67857 29496" /> 
<path d="M67857 29496 L67857 29196" /> 
<path d="M67857 29196 L67886 29121" /> 
<path d="M67886 29121 L67943 29083" /> 
<path d="M67943 29083 L68057 29083" /> 
<path d="M68057 29083 L68114 29121" /> 
<path d="M68114 29121 L68143 29196" /> 
<path d="M68143 29196 L68143 29271" /> 
<path d="M68143 29271 L67857 29346" /> 
<g style = "stroke-linecap:round;" > 
<path d="M67857 29346 L67857 29346" /> 
</g><path d="M68400 29608 L68400 29083" /> 
<g style = "stroke-linecap:round;" > 
<path d="M68400 29083 L68400 29083" /> 
</g><path d="M68400 29233 L68428 29158" /> 
<path d="M68428 29158 L68457 29121" /> 
<path d="M68457 29121 L68514 29083" /> 
<path d="M68514 29083 L68571 29083" /> 
<g style = "stroke-linecap:round;" > 
<path d="M68571 29083 L68571 29083" /> 
</g><path d="M68999 29571 L68942 29608" /> 
<path d="M68942 29608 L68828 29608" /> 
<path d="M68828 29608 L68771 29571" /> 
<path d="M68771 29571 L68742 29496" /> 
<path d="M68742 29496 L68742 29196" /> 
<path d="M68742 29196 L68771 29121" /> 
<path d="M68771 29121 L68828 29083" /> 
<path d="M68828 29083 L68942 29083" /> 
<path d="M68942 29083 L68999 29121" /> 
<path d="M68999 29121 L69028 29196" /> 
<path d="M69028 29196 L69028 29271" /> 
<path d="M69028 29271 L68742 29346" /> 
<g style = "stroke-linecap:round;" > 
<path d="M68742 29346 L68742 29346" /> 
</g></g>
<g style="fill:#C0C0C0; fill-opacity:0.0; 
  stroke:#FFFF00; stroke-linecap:round; stroke-linejoin:round; stroke-opacity:1.0; stroke-opacity:1.0; stroke-width:8" 
   transform="translate(0 0) scale(1 1)">
<path d="M43900 37225 L43930 37160" /> 
<path d="M58300 37170 L55230 61990" /> 
<path d="M55005 29895 L47190 29910" /> 
<path d="M58305 37170 L55005 29895" /> 
<path d="M43890 37180 L46920 61980" /> 
<path d="M43920 37185 L47205 29880" /> 
</g>
<g style="fill:#C0C0C0; fill-opacity:0.0; 
  stroke:#0000C0; stroke-linecap:round; stroke-linejoin:round; stroke-opacity:1.0; stroke-opacity:1.0; stroke-width:39" 
   transform="translate(0 0) scale(1 1)">
<path d="M42745 42835 L59620 42835" /> 
<path d="M42700 29890 L59570 29890" /> 
<path d="M58310 28770 L58310 44030" /> 
<path d="M43890 28735 L43890 44030" /> 
</g>
<g style="fill:#C0C0C0; fill-opacity:0.0; 
  stroke:#FFFF00; stroke-linecap:round; stroke-linejoin:round; stroke-opacity:1.0; stroke-opacity:1.0; stroke-width:8" 
   transform="translate(0 0) scale(1 1)">
<path d="M43075 27875 L59160 27875" /> 
<path d="M45055 68180 L57045 68180" /> 
</g>
<g style="fill:#C0C0C0; fill-opacity:0.0; 
  stroke:#C0C0C0; stroke-linecap:round; stroke-linejoin:round; stroke-opacity:1.0; stroke-opacity:1.0; stroke-width:39" 
   transform="translate(0 0) scale(1 1)">
<path d="M45080 68180 L45045 68180" /> 
</g>
<g style="fill:#C0C0C0; fill-opacity:0.0; 
  stroke:#0000C0; stroke-linecap:round; stroke-linejoin:round; stroke-opacity:1.0; stroke-opacity:1.0; stroke-width:0" 
   transform="translate(0 0) scale(1 1)">
<path d="M58984 70725 L58988 70725" /> 
<path d="M58986 70723 L58986 70727" /> 
</g>
<g style="fill:#C0C0C0; fill-opacity:0.0; 
  stroke:#C0C0C0; stroke-linecap:round; stroke-linejoin:round; stroke-opacity:1.0; stroke-opacity:1.0; stroke-width:39" 
   transform="translate(0 0) scale(1 1)">
<path d="M59304 72867 L59304 73210" /> 
<g style = "stroke-linecap:round;" > 
<path d="M59304 73210 L59304 73210" /> 
</g><path d="M59304 73038 L58517 73038" /> 
<path d="M58517 73038 L58629 73095" /> 
<path d="M58629 73095 L58704 73153" /> 
<path d="M58704 73153 L58742 73210" /> 
<g style = "stroke-linecap:round;" > 
<path d="M58742 73210 L58742 73210" /> 
</g><path d="M58517 72667 L58517 72296" /> 
<path d="M58517 72296 L58817 72496" /> 
<path d="M58817 72496 L58817 72410" /> 
<path d="M58817 72410 L58854 72353" /> 
<path d="M58854 72353 L58892 72324" /> 
<path d="M58892 72324 L58967 72296" /> 
<path d="M58967 72296 L59154 72296" /> 
<path d="M59154 72296 L59229 72324" /> 
<path d="M59229 72324 L59267 72353" /> 
<path d="M59267 72353 L59304 72410" /> 
<path d="M59304 72410 L59304 72582" /> 
<path d="M59304 72582 L59267 72639" /> 
<path d="M59267 72639 L59229 72667" /> 
<g style = "stroke-linecap:round;" > 
<path d="M59229 72667 L59229 72667" /> 
</g><path d="M59229 72039 L59267 72011" /> 
<path d="M59267 72011 L59304 72039" /> 
<path d="M59304 72039 L59267 72068" /> 
<path d="M59267 72068 L59229 72039" /> 
<path d="M59229 72039 L59304 72039" /> 
<g style = "stroke-linecap:round;" > 
<path d="M59304 72039 L59304 72039" /> 
</g><path d="M58517 71639 L58517 71582" /> 
<path d="M58517 71582 L58555 71525" /> 
<path d="M58555 71525 L58592 71496" /> 
<path d="M58592 71496 L58667 71467" /> 
<path d="M58667 71467 L58817 71439" /> 
<path d="M58817 71439 L59004 71439" /> 
<path d="M59004 71439 L59154 71467" /> 
<path d="M59154 71467 L59229 71496" /> 
<path d="M59229 71496 L59267 71525" /> 
<path d="M59267 71525 L59304 71582" /> 
<path d="M59304 71582 L59304 71639" /> 
<path d="M59304 71639 L59267 71696" /> 
<path d="M59267 71696 L59229 71725" /> 
<path d="M59229 71725 L59154 71753" /> 
<path d="M59154 71753 L59004 71782" /> 
<path d="M59004 71782 L58817 71782" /> 
<path d="M58817 71782 L58667 71753" /> 
<path d="M58667 71753 L58592 71725" /> 
<path d="M58592 71725 L58555 71696" /> 
<path d="M58555 71696 L58517 71639" /> 
<path d="M58517 71239 L58517 70868" /> 
<path d="M58517 70868 L58817 71068" /> 
<path d="M58817 71068 L58817 70982" /> 
<path d="M58817 70982 L58854 70925" /> 
<path d="M58854 70925 L58892 70896" /> 
<path d="M58892 70896 L58967 70868" /> 
<path d="M58967 70868 L59154 70868" /> 
<path d="M59154 70868 L59229 70896" /> 
<path d="M59229 70896 L59267 70925" /> 
<path d="M59267 70925 L59304 70982" /> 
<path d="M59304 70982 L59304 71154" /> 
<path d="M59304 71154 L59267 71211" /> 
<path d="M59267 71211 L59229 71239" /> 
<g style = "stroke-linecap:round;" > 
<path d="M59229 71239 L59229 71239" /> 
</g><path d="M58517 70497 L58517 70440" /> 
<path d="M58517 70440 L58555 70383" /> 
<path d="M58555 70383 L58592 70354" /> 
<path d="M58592 70354 L58667 70325" /> 
<path d="M58667 70325 L58817 70297" /> 
<path d="M58817 70297 L59004 70297" /> 
<path d="M59004 70297 L59154 70325" /> 
<path d="M59154 70325 L59229 70354" /> 
<path d="M59229 70354 L59267 70383" /> 
<path d="M59267 70383 L59304 70440" /> 
<path d="M59304 70440 L59304 70497" /> 
<path d="M59304 70497 L59267 70554" /> 
<path d="M59267 70554 L59229 70583" /> 
<path d="M59229 70583 L59154 70611" /> 
<path d="M59154 70611 L59004 70640" /> 
<path d="M59004 70640 L58817 70640" /> 
<path d="M58817 70640 L58667 70611" /> 
<path d="M58667 70611 L58592 70583" /> 
<path d="M58592 70583 L58555 70554" /> 
<path d="M58555 70554 L58517 70497" /> 
<path d="M59304 69583 L58779 69583" /> 
<g style = "stroke-linecap:round;" > 
<path d="M58779 69583 L58779 69583" /> 
</g><path d="M58854 69583 L58817 69555" /> 
<path d="M58817 69555 L58779 69497" /> 
<path d="M58779 69497 L58779 69412" /> 
<path d="M58779 69412 L58817 69355" /> 
<path d="M58817 69355 L58892 69326" /> 
<path d="M58892 69326 L59304 69326" /> 
<g style = "stroke-linecap:round;" > 
<path d="M59304 69326 L59304 69326" /> 
</g><path d="M58892 69326 L58817 69297" /> 
<path d="M58817 69297 L58779 69240" /> 
<path d="M58779 69240 L58779 69155" /> 
<path d="M58779 69155 L58817 69097" /> 
<path d="M58817 69097 L58892 69069" /> 
<path d="M58892 69069 L59304 69069" /> 
<g style = "stroke-linecap:round;" > 
<path d="M59304 69069 L59304 69069" /> 
</g><path d="M59304 68783 L58779 68783" /> 
<g style = "stroke-linecap:round;" > 
<path d="M58779 68783 L58779 68783" /> 
</g><path d="M58854 68783 L58817 68755" /> 
<path d="M58817 68755 L58779 68697" /> 
<path d="M58779 68697 L58779 68612" /> 
<path d="M58779 68612 L58817 68555" /> 
<path d="M58817 68555 L58892 68526" /> 
<path d="M58892 68526 L59304 68526" /> 
<g style = "stroke-linecap:round;" > 
<path d="M59304 68526 L59304 68526" /> 
</g><path d="M58892 68526 L58817 68497" /> 
<path d="M58817 68497 L58779 68440" /> 
<path d="M58779 68440 L58779 68355" /> 
<path d="M58779 68355 L58817 68297" /> 
<path d="M58817 68297 L58892 68269" /> 
<path d="M58892 68269 L59304 68269" /> 
<g style = "stroke-linecap:round;" > 
<path d="M59304 68269 L59304 68269" /> 
</g><path d="M58515 73290 L58515 68160" /> 
<path d="M57030 73290 L59458 73290" /> 
<path d="M57030 68160 L59458 68160" /> 
<path d="M58515 68160 L58745 68603" /> 
<path d="M58515 68160 L58285 68603" /> 
<path d="M58515 73290 L58745 72847" /> 
<path d="M58515 73290 L58285 72847" /> 
</g>
<g style="fill:#C0C0C0; fill-opacity:0.0; 
  stroke:#0000C0; stroke-linecap:round; stroke-linejoin:round; stroke-opacity:1.0; stroke-opacity:1.0; stroke-width:0" 
   transform="translate(0 0) scale(1 1)">
<path d="M43483 25322 L43487 25322" /> 
<path d="M43485 25320 L43485 25324" /> 
</g>
<g style="fill:#C0C0C0; fill-opacity:0.0; 
  stroke:#C0C0C0; stroke-linecap:round; stroke-linejoin:round; stroke-opacity:1.0; stroke-opacity:1.0; stroke-width:39" 
   transform="translate(0 0) scale(1 1)">
<path d="M43167 23180 L43167 22837" /> 
<g style = "stroke-linecap:round;" > 
<path d="M43167 22837 L43167 22837" /> 
</g><path d="M43167 23009 L43954 23009" /> 
<path d="M43954 23009 L43842 22952" /> 
<path d="M43842 22952 L43767 22894" /> 
<path d="M43767 22894 L43729 22837" /> 
<g style = "stroke-linecap:round;" > 
<path d="M43729 22837 L43729 22837" /> 
</g><path d="M43954 23380 L43954 23751" /> 
<path d="M43954 23751 L43654 23551" /> 
<path d="M43654 23551 L43654 23637" /> 
<path d="M43654 23637 L43617 23694" /> 
<path d="M43617 23694 L43579 23723" /> 
<path d="M43579 23723 L43504 23751" /> 
<path d="M43504 23751 L43317 23751" /> 
<path d="M43317 23751 L43242 23723" /> 
<path d="M43242 23723 L43204 23694" /> 
<path d="M43204 23694 L43167 23637" /> 
<path d="M43167 23637 L43167 23465" /> 
<path d="M43167 23465 L43204 23408" /> 
<path d="M43204 23408 L43242 23380" /> 
<g style = "stroke-linecap:round;" > 
<path d="M43242 23380 L43242 23380" /> 
</g><path d="M43242 24008 L43204 24036" /> 
<path d="M43204 24036 L43167 24008" /> 
<path d="M43167 24008 L43204 23979" /> 
<path d="M43204 23979 L43242 24008" /> 
<path d="M43242 24008 L43167 24008" /> 
<g style = "stroke-linecap:round;" > 
<path d="M43167 24008 L43167 24008" /> 
</g><path d="M43954 24408 L43954 24465" /> 
<path d="M43954 24465 L43916 24522" /> 
<path d="M43916 24522 L43879 24551" /> 
<path d="M43879 24551 L43804 24580" /> 
<path d="M43804 24580 L43654 24608" /> 
<path d="M43654 24608 L43467 24608" /> 
<path d="M43467 24608 L43317 24580" /> 
<path d="M43317 24580 L43242 24551" /> 
<path d="M43242 24551 L43204 24522" /> 
<path d="M43204 24522 L43167 24465" /> 
<path d="M43167 24465 L43167 24408" /> 
<path d="M43167 24408 L43204 24351" /> 
<path d="M43204 24351 L43242 24322" /> 
<path d="M43242 24322 L43317 24294" /> 
<path d="M43317 24294 L43467 24265" /> 
<path d="M43467 24265 L43654 24265" /> 
<path d="M43654 24265 L43804 24294" /> 
<path d="M43804 24294 L43879 24322" /> 
<path d="M43879 24322 L43916 24351" /> 
<path d="M43916 24351 L43954 24408" /> 
<path d="M43954 25122 L43954 25008" /> 
<path d="M43954 25008 L43916 24951" /> 
<path d="M43916 24951 L43879 24922" /> 
<path d="M43879 24922 L43767 24865" /> 
<path d="M43767 24865 L43617 24836" /> 
<path d="M43617 24836 L43317 24836" /> 
<path d="M43317 24836 L43242 24865" /> 
<path d="M43242 24865 L43204 24893" /> 
<path d="M43204 24893 L43167 24951" /> 
<path d="M43167 24951 L43167 25065" /> 
<path d="M43167 25065 L43204 25122" /> 
<path d="M43204 25122 L43242 25151" /> 
<path d="M43242 25151 L43317 25179" /> 
<path d="M43317 25179 L43504 25179" /> 
<path d="M43504 25179 L43579 25151" /> 
<path d="M43579 25151 L43617 25122" /> 
<path d="M43617 25122 L43654 25065" /> 
<path d="M43654 25065 L43654 24951" /> 
<path d="M43654 24951 L43617 24893" /> 
<path d="M43617 24893 L43579 24865" /> 
<path d="M43579 24865 L43504 24836" /> 
<g style = "stroke-linecap:round;" > 
<path d="M43504 24836 L43504 24836" /> 
</g><path d="M43617 25522 L43654 25464" /> 
<path d="M43654 25464 L43692 25436" /> 
<path d="M43692 25436 L43767 25407" /> 
<path d="M43767 25407 L43804 25407" /> 
<path d="M43804 25407 L43879 25436" /> 
<path d="M43879 25436 L43916 25464" /> 
<path d="M43916 25464 L43954 25522" /> 
<path d="M43954 25522 L43954 25636" /> 
<path d="M43954 25636 L43916 25693" /> 
<path d="M43916 25693 L43879 25722" /> 
<path d="M43879 25722 L43804 25750" /> 
<path d="M43804 25750 L43767 25750" /> 
<path d="M43767 25750 L43692 25722" /> 
<path d="M43692 25722 L43654 25693" /> 
<path d="M43654 25693 L43617 25636" /> 
<path d="M43617 25636 L43617 25522" /> 
<path d="M43617 25522 L43579 25464" /> 
<path d="M43579 25464 L43542 25436" /> 
<path d="M43542 25436 L43467 25407" /> 
<path d="M43467 25407 L43317 25407" /> 
<path d="M43317 25407 L43242 25436" /> 
<path d="M43242 25436 L43204 25464" /> 
<path d="M43204 25464 L43167 25522" /> 
<path d="M43167 25522 L43167 25636" /> 
<path d="M43167 25636 L43204 25693" /> 
<path d="M43204 25693 L43242 25722" /> 
<path d="M43242 25722 L43317 25750" /> 
<path d="M43317 25750 L43467 25750" /> 
<path d="M43467 25750 L43542 25722" /> 
<path d="M43542 25722 L43579 25693" /> 
<path d="M43579 25693 L43617 25636" /> 
<g style = "stroke-linecap:round;" > 
<path d="M43617 25636 L43617 25636" /> 
</g><path d="M43167 26464 L43692 26464" /> 
<g style = "stroke-linecap:round;" > 
<path d="M43692 26464 L43692 26464" /> 
</g><path d="M43617 26464 L43654 26492" /> 
<path d="M43654 26492 L43692 26550" /> 
<path d="M43692 26550 L43692 26635" /> 
<path d="M43692 26635 L43654 26692" /> 
<path d="M43654 26692 L43579 26721" /> 
<path d="M43579 26721 L43167 26721" /> 
<g style = "stroke-linecap:round;" > 
<path d="M43167 26721 L43167 26721" /> 
</g><path d="M43579 26721 L43654 26750" /> 
<path d="M43654 26750 L43692 26807" /> 
<path d="M43692 26807 L43692 26892" /> 
<path d="M43692 26892 L43654 26950" /> 
<path d="M43654 26950 L43579 26978" /> 
<path d="M43579 26978 L43167 26978" /> 
<g style = "stroke-linecap:round;" > 
<path d="M43167 26978 L43167 26978" /> 
</g><path d="M43167 27264 L43692 27264" /> 
<g style = "stroke-linecap:round;" > 
<path d="M43692 27264 L43692 27264" /> 
</g><path d="M43617 27264 L43654 27292" /> 
<path d="M43654 27292 L43692 27350" /> 
<path d="M43692 27350 L43692 27435" /> 
<path d="M43692 27435 L43654 27492" /> 
<path d="M43654 27492 L43579 27521" /> 
<path d="M43579 27521 L43167 27521" /> 
<g style = "stroke-linecap:round;" > 
<path d="M43167 27521 L43167 27521" /> 
</g><path d="M43579 27521 L43654 27550" /> 
<path d="M43654 27550 L43692 27607" /> 
<path d="M43692 27607 L43692 27692" /> 
<path d="M43692 27692 L43654 27750" /> 
<path d="M43654 27750 L43579 27778" /> 
<path d="M43579 27778 L43167 27778" /> 
<g style = "stroke-linecap:round;" > 
<path d="M43167 27778 L43167 27778" /> 
</g><path d="M43014 22750 L43014 27895" /> 
<path d="M39025 22750 L43957 22750" /> 
<path d="M39025 27895 L43957 27895" /> 
<path d="M43014 27895 L42784 27452" /> 
<path d="M43014 27895 L43244 27452" /> 
<path d="M43014 22750 L42784 23193" /> 
<path d="M43014 22750 L43244 23193" /> 
</g>
<g style="fill:#C0C0C0; fill-opacity:0.0; 
  stroke:#FFFF00; stroke-linecap:round; stroke-linejoin:round; stroke-opacity:1.0; stroke-opacity:1.0; stroke-width:8" 
   transform="translate(0 0) scale(1 1)">
<path d="M46065 73320 L56010 73305" /> 
</g>
<g style="fill:#C0C0C0; fill-opacity:0.0; 
  stroke:#C0C0C0; stroke-linecap:round; stroke-linejoin:round; stroke-opacity:1.0; stroke-opacity:1.0; stroke-width:39" 
   transform="translate(0 0) scale(1 1)">
<path d="M42700 28700 L42735 44065" /> 
<path d="M47180 28735 L42700 28700" /> 
<path d="M59605 44030 L40390 44030" /> 
<path d="M59535 28735 L59605 44030" /> 
<path d="M47145 28735 L59535 28735" /> 
</g>
<g style="fill:#C0C0C0; fill-opacity:0.0; 
  stroke:#FFFF00; stroke-linecap:round; stroke-linejoin:round; stroke-opacity:1.0; stroke-opacity:1.0; stroke-width:8" 
   transform="translate(0 0) scale(1 1)">
<path d="M55240 61990 L46915 61975" /> 
</g>
<g style="fill:#C0C0C0; fill-opacity:0.0; 
  stroke:#0000C0; stroke-linecap:round; stroke-linejoin:round; stroke-opacity:1.0; stroke-opacity:1.0; stroke-width:0" 
   transform="translate(0 0) scale(1 1)">
<path d="M37519 33368 L37523 33368" /> 
<path d="M37521 33366 L37521 33370" /> 
</g>
<g style="fill:#C0C0C0; fill-opacity:0.0; 
  stroke:#C0C0C0; stroke-linecap:round; stroke-linejoin:round; stroke-opacity:1.0; stroke-opacity:1.0; stroke-width:39" 
   transform="translate(0 0) scale(1 1)">
<path d="M37990 31198 L37990 30912" /> 
<path d="M37990 30912 L37615 30883" /> 
<path d="M37615 30883 L37653 30912" /> 
<path d="M37653 30912 L37690 30969" /> 
<path d="M37690 30969 L37690 31112" /> 
<path d="M37690 31112 L37653 31169" /> 
<path d="M37653 31169 L37615 31198" /> 
<path d="M37615 31198 L37540 31226" /> 
<path d="M37540 31226 L37353 31226" /> 
<path d="M37353 31226 L37278 31198" /> 
<path d="M37278 31198 L37240 31169" /> 
<path d="M37240 31169 L37203 31112" /> 
<path d="M37203 31112 L37203 30969" /> 
<path d="M37203 30969 L37240 30912" /> 
<path d="M37240 30912 L37278 30883" /> 
<g style = "stroke-linecap:round;" > 
<path d="M37278 30883 L37278 30883" /> 
</g><path d="M37728 31740 L37203 31740" /> 
<g style = "stroke-linecap:round;" > 
<path d="M37203 31740 L37203 31740" /> 
</g><path d="M38027 31597 L37465 31454" /> 
<path d="M37465 31454 L37465 31826" /> 
<g style = "stroke-linecap:round;" > 
<path d="M37465 31826 L37465 31826" /> 
</g><path d="M37278 32054 L37240 32082" /> 
<path d="M37240 32082 L37203 32054" /> 
<path d="M37203 32054 L37240 32025" /> 
<path d="M37240 32025 L37278 32054" /> 
<path d="M37278 32054 L37203 32054" /> 
<g style = "stroke-linecap:round;" > 
<path d="M37203 32054 L37203 32054" /> 
</g><path d="M37990 32454 L37990 32511" /> 
<path d="M37990 32511 L37952 32568" /> 
<path d="M37952 32568 L37915 32597" /> 
<path d="M37915 32597 L37840 32626" /> 
<path d="M37840 32626 L37690 32654" /> 
<path d="M37690 32654 L37503 32654" /> 
<path d="M37503 32654 L37353 32626" /> 
<path d="M37353 32626 L37278 32597" /> 
<path d="M37278 32597 L37240 32568" /> 
<path d="M37240 32568 L37203 32511" /> 
<path d="M37203 32511 L37203 32454" /> 
<path d="M37203 32454 L37240 32397" /> 
<path d="M37240 32397 L37278 32368" /> 
<path d="M37278 32368 L37353 32340" /> 
<path d="M37353 32340 L37503 32311" /> 
<path d="M37503 32311 L37690 32311" /> 
<path d="M37690 32311 L37840 32340" /> 
<path d="M37840 32340 L37915 32368" /> 
<path d="M37915 32368 L37952 32397" /> 
<path d="M37952 32397 L37990 32454" /> 
<path d="M37990 33197 L37990 32911" /> 
<path d="M37990 32911 L37615 32882" /> 
<path d="M37615 32882 L37653 32911" /> 
<path d="M37653 32911 L37690 32968" /> 
<path d="M37690 32968 L37690 33111" /> 
<path d="M37690 33111 L37653 33168" /> 
<path d="M37653 33168 L37615 33197" /> 
<path d="M37615 33197 L37540 33225" /> 
<path d="M37540 33225 L37353 33225" /> 
<path d="M37353 33225 L37278 33197" /> 
<path d="M37278 33197 L37240 33168" /> 
<path d="M37240 33168 L37203 33111" /> 
<path d="M37203 33111 L37203 32968" /> 
<path d="M37203 32968 L37240 32911" /> 
<path d="M37240 32911 L37278 32882" /> 
<g style = "stroke-linecap:round;" > 
<path d="M37278 32882 L37278 32882" /> 
</g><path d="M37203 33796 L37203 33453" /> 
<g style = "stroke-linecap:round;" > 
<path d="M37203 33453 L37203 33453" /> 
</g><path d="M37203 33625 L37990 33625" /> 
<path d="M37990 33625 L37878 33568" /> 
<path d="M37878 33568 L37803 33510" /> 
<path d="M37803 33510 L37765 33453" /> 
<g style = "stroke-linecap:round;" > 
<path d="M37765 33453 L37765 33453" /> 
</g><path d="M37203 34510 L37728 34510" /> 
<g style = "stroke-linecap:round;" > 
<path d="M37728 34510 L37728 34510" /> 
</g><path d="M37653 34510 L37690 34538" /> 
<path d="M37690 34538 L37728 34596" /> 
<path d="M37728 34596 L37728 34681" /> 
<path d="M37728 34681 L37690 34738" /> 
<path d="M37690 34738 L37615 34767" /> 
<path d="M37615 34767 L37203 34767" /> 
<g style = "stroke-linecap:round;" > 
<path d="M37203 34767 L37203 34767" /> 
</g><path d="M37615 34767 L37690 34796" /> 
<path d="M37690 34796 L37728 34853" /> 
<path d="M37728 34853 L37728 34938" /> 
<path d="M37728 34938 L37690 34996" /> 
<path d="M37690 34996 L37615 35024" /> 
<path d="M37615 35024 L37203 35024" /> 
<g style = "stroke-linecap:round;" > 
<path d="M37203 35024 L37203 35024" /> 
</g><path d="M37203 35310 L37728 35310" /> 
<g style = "stroke-linecap:round;" > 
<path d="M37728 35310 L37728 35310" /> 
</g><path d="M37653 35310 L37690 35338" /> 
<path d="M37690 35338 L37728 35396" /> 
<path d="M37728 35396 L37728 35481" /> 
<path d="M37728 35481 L37690 35538" /> 
<path d="M37690 35538 L37615 35567" /> 
<path d="M37615 35567 L37203 35567" /> 
<g style = "stroke-linecap:round;" > 
<path d="M37203 35567 L37203 35567" /> 
</g><path d="M37615 35567 L37690 35596" /> 
<path d="M37690 35596 L37728 35653" /> 
<path d="M37728 35653 L37728 35738" /> 
<path d="M37728 35738 L37690 35796" /> 
<path d="M37690 35796 L37615 35824" /> 
<path d="M37615 35824 L37203 35824" /> 
<g style = "stroke-linecap:round;" > 
<path d="M37203 35824 L37203 35824" /> 
</g><path d="M38010 22729 L37975 44009" /> 
<path d="M51170 22750 L37067 22728" /> 
<path d="M51135 44030 L37032 44008" /> 
<path d="M37975 44009 L37745 43566" /> 
<path d="M37975 44009 L38206 43566" /> 
<path d="M38010 22729 L37779 23172" /> 
<path d="M38010 22729 L38240 23172" /> 
</g>
<g style="fill:#C0C0C0; fill-opacity:0.0; 
  stroke:#FFFF00; stroke-linecap:round; stroke-linejoin:round; stroke-opacity:1.0; stroke-opacity:1.0; stroke-width:8" 
   transform="translate(0 0) scale(1 1)">
<path d="M57135 22710 L45150 22710" /> 
<path d="M45150 22710 L39120 37860" /> 
<path d="M39120 37860 L46065 73320" /> 
<path d="M46065 73320 L56010 73305" /> 
<path d="M63075 37890 L57120 22710" /> 
<path d="M57120 22710 L50955 22725" /> 
<path d="M57120 22710 L50955 22725" /> 
<path d="M63075 37890 L57120 22710" /> 
<path d="M56010 73305 L63075 37890" /> 
<path d="M39120 37860 L46065 73320" /> 
<path d="M45150 22710 L39120 37860" /> 
<path d="M57135 22710 L45150 22710" /> 
</g>
<g style="fill:#808000; fill-opacity:1.0; 
  stroke:#808000; stroke-linecap:round; stroke-linejoin:round; stroke-opacity:1.0; stroke-opacity:1.0; stroke-width:0" 
   transform="translate(0 0) scale(1 1)">
<ellipse cx="56063" cy="63189" rx="433" ry="433"  /> 
</g>
<g style="fill:#FFFFFF; fill-opacity:1.0; 
  stroke:#808000; stroke-linecap:round; stroke-linejoin:round; stroke-opacity:1.0; stroke-opacity:1.0; stroke-width:0" 
   transform="translate(0 0) scale(1 1)">
<ellipse cx="56063" cy="63189" rx="433" ry="433"  /> 
</g>
<g style="fill:#FFFFFF; fill-opacity:1.0; 
  stroke:#0000C0; stroke-linecap:round; stroke-linejoin:round; stroke-opacity:1.0; stroke-opacity:1.0; stroke-width:0" 
   transform="translate(0 0) scale(1 1)">
<path d="M56061 62189 L56065 62189" /> 
<path d="M56063 62187 L56063 62191" /> 
</g>
<g style="fill:#C0C0C0; fill-opacity:0.0; 
  stroke:#C0C0C0; stroke-linecap:round; stroke-linejoin:round; stroke-opacity:1.0; stroke-opacity:1.0; stroke-width:107" 
   transform="translate(0 0) scale(1 1)">
<path d="M55197 62432 L55258 62464" /> 
<path d="M55258 62464 L55360 62464" /> 
<path d="M55360 62464 L55400 62432" /> 
<path d="M55400 62432 L55421 62399" /> 
<path d="M55421 62399 L55441 62334" /> 
<path d="M55441 62334 L55441 62270" /> 
<path d="M55441 62270 L55421 62205" /> 
<path d="M55421 62205 L55400 62172" /> 
<path d="M55400 62172 L55360 62140" /> 
<path d="M55360 62140 L55278 62107" /> 
<path d="M55278 62107 L55237 62075" /> 
<path d="M55237 62075 L55217 62043" /> 
<path d="M55217 62043 L55197 61978" /> 
<path d="M55197 61978 L55197 61913" /> 
<path d="M55197 61913 L55217 61848" /> 
<path d="M55217 61848 L55237 61816" /> 
<path d="M55237 61816 L55278 61783" /> 
<path d="M55278 61783 L55380 61783" /> 
<path d="M55380 61783 L55441 61816" /> 
<g style = "stroke-linecap:round;" > 
<path d="M55441 61816 L55441 61816" /> 
</g><path d="M55625 62464 L55625 61783" /> 
<g style = "stroke-linecap:round;" > 
<path d="M55625 61783 L55625 61783" /> 
</g><path d="M56033 62464 L55829 62464" /> 
<path d="M55829 62464 L55829 61783" /> 
<g style = "stroke-linecap:round;" > 
<path d="M55829 61783 L55829 61783" /> 
</g><path d="M56175 62205 L56501 62205" /> 
<g style = "stroke-linecap:round;" > 
<path d="M56501 62205 L56501 62205" /> 
</g><path d="M56929 62464 L56685 62464" /> 
<g style = "stroke-linecap:round;" > 
<path d="M56685 62464 L56685 62464" /> 
</g><path d="M56807 62464 L56807 61783" /> 
<path d="M56807 61783 L56766 61880" /> 
<path d="M56766 61880 L56725 61945" /> 
<path d="M56725 61945 L56685 61978" /> 
<g style = "stroke-linecap:round;" > 
<path d="M56685 61978 L56685 61978" /> 
</g></g>
<g style="fill:#808000; fill-opacity:1.0; 
  stroke:#808000; stroke-linecap:round; stroke-linejoin:round; stroke-opacity:1.0; stroke-opacity:1.0; stroke-width:0" 
   transform="translate(0 0) scale(1 1)">
<ellipse cx="46063" cy="63189" rx="433" ry="433"  /> 
</g>
<g style="fill:#FFFFFF; fill-opacity:1.0; 
  stroke:#808000; stroke-linecap:round; stroke-linejoin:round; stroke-opacity:1.0; stroke-opacity:1.0; stroke-width:0" 
   transform="translate(0 0) scale(1 1)">
<ellipse cx="46063" cy="63189" rx="433" ry="433"  /> 
</g>
<g style="fill:#FFFFFF; fill-opacity:1.0; 
  stroke:#0000C0; stroke-linecap:round; stroke-linejoin:round; stroke-opacity:1.0; stroke-opacity:1.0; stroke-width:0" 
   transform="translate(0 0) scale(1 1)">
<path d="M46061 62189 L46065 62189" /> 
<path d="M46063 62187 L46063 62191" /> 
</g>
<g style="fill:#C0C0C0; fill-opacity:0.0; 
  stroke:#C0C0C0; stroke-linecap:round; stroke-linejoin:round; stroke-opacity:1.0; stroke-opacity:1.0; stroke-width:107" 
   transform="translate(0 0) scale(1 1)">
<path d="M45197 62432 L45258 62464" /> 
<path d="M45258 62464 L45360 62464" /> 
<path d="M45360 62464 L45400 62432" /> 
<path d="M45400 62432 L45421 62399" /> 
<path d="M45421 62399 L45441 62334" /> 
<path d="M45441 62334 L45441 62270" /> 
<path d="M45441 62270 L45421 62205" /> 
<path d="M45421 62205 L45400 62172" /> 
<path d="M45400 62172 L45360 62140" /> 
<path d="M45360 62140 L45278 62107" /> 
<path d="M45278 62107 L45237 62075" /> 
<path d="M45237 62075 L45217 62043" /> 
<path d="M45217 62043 L45197 61978" /> 
<path d="M45197 61978 L45197 61913" /> 
<path d="M45197 61913 L45217 61848" /> 
<path d="M45217 61848 L45237 61816" /> 
<path d="M45237 61816 L45278 61783" /> 
<path d="M45278 61783 L45380 61783" /> 
<path d="M45380 61783 L45441 61816" /> 
<g style = "stroke-linecap:round;" > 
<path d="M45441 61816 L45441 61816" /> 
</g><path d="M45625 62464 L45625 61783" /> 
<g style = "stroke-linecap:round;" > 
<path d="M45625 61783 L45625 61783" /> 
</g><path d="M46033 62464 L45829 62464" /> 
<path d="M45829 62464 L45829 61783" /> 
<g style = "stroke-linecap:round;" > 
<path d="M45829 61783 L45829 61783" /> 
</g><path d="M46175 62205 L46501 62205" /> 
<g style = "stroke-linecap:round;" > 
<path d="M46501 62205 L46501 62205" /> 
</g><path d="M46929 62464 L46685 62464" /> 
<g style = "stroke-linecap:round;" > 
<path d="M46685 62464 L46685 62464" /> 
</g><path d="M46807 62464 L46807 61783" /> 
<path d="M46807 61783 L46766 61880" /> 
<path d="M46766 61880 L46725 61945" /> 
<path d="M46725 61945 L46685 61978" /> 
<g style = "stroke-linecap:round;" > 
<path d="M46685 61978 L46685 61978" /> 
</g></g>
<g style="fill:#808000; fill-opacity:1.0; 
  stroke:#808000; stroke-linecap:round; stroke-linejoin:round; stroke-opacity:1.0; stroke-opacity:1.0; stroke-width:0" 
   transform="translate(0 0) scale(1 1)">
<ellipse cx="41230" cy="37800" rx="433" ry="433"  /> 
</g>
<g style="fill:#FFFFFF; fill-opacity:1.0; 
  stroke:#808000; stroke-linecap:round; stroke-linejoin:round; stroke-opacity:1.0; stroke-opacity:1.0; stroke-width:0" 
   transform="translate(0 0) scale(1 1)">
<ellipse cx="41230" cy="37800" rx="433" ry="433"  /> 
</g>
<g style="fill:#FFFFFF; fill-opacity:1.0; 
  stroke:#0000C0; stroke-linecap:round; stroke-linejoin:round; stroke-opacity:1.0; stroke-opacity:1.0; stroke-width:0" 
   transform="translate(0 0) scale(1 1)">
<path d="M41228 36800 L41232 36800" /> 
<path d="M41230 36798 L41230 36802" /> 
</g>
<g style="fill:#C0C0C0; fill-opacity:0.0; 
  stroke:#C0C0C0; stroke-linecap:round; stroke-linejoin:round; stroke-opacity:1.0; stroke-opacity:1.0; stroke-width:107" 
   transform="translate(0 0) scale(1 1)">
<path d="M40364 37043 L40425 37075" /> 
<path d="M40425 37075 L40527 37075" /> 
<path d="M40527 37075 L40567 37043" /> 
<path d="M40567 37043 L40588 37010" /> 
<path d="M40588 37010 L40608 36945" /> 
<path d="M40608 36945 L40608 36881" /> 
<path d="M40608 36881 L40588 36816" /> 
<path d="M40588 36816 L40567 36783" /> 
<path d="M40567 36783 L40527 36751" /> 
<path d="M40527 36751 L40445 36718" /> 
<path d="M40445 36718 L40404 36686" /> 
<path d="M40404 36686 L40384 36654" /> 
<path d="M40384 36654 L40364 36589" /> 
<path d="M40364 36589 L40364 36524" /> 
<path d="M40364 36524 L40384 36459" /> 
<path d="M40384 36459 L40404 36427" /> 
<path d="M40404 36427 L40445 36394" /> 
<path d="M40445 36394 L40547 36394" /> 
<path d="M40547 36394 L40608 36427" /> 
<g style = "stroke-linecap:round;" > 
<path d="M40608 36427 L40608 36427" /> 
</g><path d="M40792 37075 L40792 36394" /> 
<g style = "stroke-linecap:round;" > 
<path d="M40792 36394 L40792 36394" /> 
</g><path d="M41200 37075 L40996 37075" /> 
<path d="M40996 37075 L40996 36394" /> 
<g style = "stroke-linecap:round;" > 
<path d="M40996 36394 L40996 36394" /> 
</g><path d="M41342 36816 L41668 36816" /> 
<g style = "stroke-linecap:round;" > 
<path d="M41668 36816 L41668 36816" /> 
</g><path d="M42096 37075 L41852 37075" /> 
<g style = "stroke-linecap:round;" > 
<path d="M41852 37075 L41852 37075" /> 
</g><path d="M41974 37075 L41974 36394" /> 
<path d="M41974 36394 L41933 36491" /> 
<path d="M41933 36491 L41892 36556" /> 
<path d="M41892 36556 L41852 36589" /> 
<g style = "stroke-linecap:round;" > 
<path d="M41852 36589 L41852 36589" /> 
</g></g>
<g style="fill:#808000; fill-opacity:1.0; 
  stroke:#808000; stroke-linecap:round; stroke-linejoin:round; stroke-opacity:1.0; stroke-opacity:1.0; stroke-width:0" 
   transform="translate(0 0) scale(1 1)">
<ellipse cx="60906" cy="37795" rx="433" ry="433"  /> 
</g>
<g style="fill:#FFFFFF; fill-opacity:1.0; 
  stroke:#808000; stroke-linecap:round; stroke-linejoin:round; stroke-opacity:1.0; stroke-opacity:1.0; stroke-width:0" 
   transform="translate(0 0) scale(1 1)">
<ellipse cx="60906" cy="37795" rx="433" ry="433"  /> 
</g>
<g style="fill:#FFFFFF; fill-opacity:1.0; 
  stroke:#0000C0; stroke-linecap:round; stroke-linejoin:round; stroke-opacity:1.0; stroke-opacity:1.0; stroke-width:0" 
   transform="translate(0 0) scale(1 1)">
<path d="M60904 36795 L60908 36795" /> 
<path d="M60906 36793 L60906 36797" /> 
</g>
<g style="fill:#808000; fill-opacity:1.0; 
  stroke:#808000; stroke-linecap:round; stroke-linejoin:round; stroke-opacity:1.0; stroke-opacity:1.0; stroke-width:0" 
   transform="translate(0 0) scale(1 1)">
<ellipse cx="47047" cy="46457" rx="1279" ry="1279"  /> 
</g>
<g style="fill:#FFFFFF; fill-opacity:1.0; 
  stroke:#808000; stroke-linecap:round; stroke-linejoin:round; stroke-opacity:1.0; stroke-opacity:1.0; stroke-width:0" 
   transform="translate(0 0) scale(1 1)">
<ellipse cx="47047" cy="46457" rx="1279" ry="1279"  /> 
</g>
<g style="fill:#FFFFFF; fill-opacity:1.0; 
  stroke:#0000C0; stroke-linecap:round; stroke-linejoin:round; stroke-opacity:1.0; stroke-opacity:1.0; stroke-width:0" 
   transform="translate(0 0) scale(1 1)">
<path d="M47045 45457 L47049 45457" /> 
<path d="M47047 45455 L47047 45459" /> 
</g>
<g style="fill:#808000; fill-opacity:1.0; 
  stroke:#808000; stroke-linecap:round; stroke-linejoin:round; stroke-opacity:1.0; stroke-opacity:1.0; stroke-width:0" 
   transform="translate(0 0) scale(1 1)">
<ellipse cx="55094" cy="46457" rx="1279" ry="1279"  /> 
</g>
<g style="fill:#FFFFFF; fill-opacity:1.0; 
  stroke:#808000; stroke-linecap:round; stroke-linejoin:round; stroke-opacity:1.0; stroke-opacity:1.0; stroke-width:0" 
   transform="translate(0 0) scale(1 1)">
<ellipse cx="55094" cy="46457" rx="1279" ry="1279"  /> 
</g>
<g style="fill:#FFFFFF; fill-opacity:1.0; 
  stroke:#0000C0; stroke-linecap:round; stroke-linejoin:round; stroke-opacity:1.0; stroke-opacity:1.0; stroke-width:0" 
   transform="translate(0 0) scale(1 1)">
<path d="M55092 45457 L55096 45457" /> 
<path d="M55094 45455 L55094 45459" /> 
</g>
<g style="fill:#808000; fill-opacity:1.0; 
  stroke:#808000; stroke-linecap:round; stroke-linejoin:round; stroke-opacity:1.0; stroke-opacity:1.0; stroke-width:0" 
   transform="translate(0 0) scale(1 1)">
<ellipse cx="51063" cy="49661" rx="1279" ry="1279"  /> 
</g>
<g style="fill:#FFFFFF; fill-opacity:1.0; 
  stroke:#808000; stroke-linecap:round; stroke-linejoin:round; stroke-opacity:1.0; stroke-opacity:1.0; stroke-width:0" 
   transform="translate(0 0) scale(1 1)">
<ellipse cx="51063" cy="49661" rx="1279" ry="1279"  /> 
</g>
<g style="fill:#FFFFFF; fill-opacity:1.0; 
  stroke:#0000C0; stroke-linecap:round; stroke-linejoin:round; stroke-opacity:1.0; stroke-opacity:1.0; stroke-width:0" 
   transform="translate(0 0) scale(1 1)">
<path d="M51061 48661 L51065 48661" /> 
<path d="M51063 48659 L51063 48663" /> 
</g>
<g style="fill:#808000; fill-opacity:1.0; 
  stroke:#808000; stroke-linecap:round; stroke-linejoin:round; stroke-opacity:1.0; stroke-opacity:1.0; stroke-width:0" 
   transform="translate(0 0) scale(1 1)">
<ellipse cx="48228" cy="54134" rx="1279" ry="1279"  /> 
</g>
<g style="fill:#FFFFFF; fill-opacity:1.0; 
  stroke:#808000; stroke-linecap:round; stroke-linejoin:round; stroke-opacity:1.0; stroke-opacity:1.0; stroke-width:0" 
   transform="translate(0 0) scale(1 1)">
<ellipse cx="48228" cy="54134" rx="1279" ry="1279"  /> 
</g>
<g style="fill:#FFFFFF; fill-opacity:1.0; 
  stroke:#0000C0; stroke-linecap:round; stroke-linejoin:round; stroke-opacity:1.0; stroke-opacity:1.0; stroke-width:0" 
   transform="translate(0 0) scale(1 1)">
<path d="M48226 53134 L48230 53134" /> 
<path d="M48228 53132 L48228 53136" /> 
</g>
<g style="fill:#808000; fill-opacity:1.0; 
  stroke:#808000; stroke-linecap:round; stroke-linejoin:round; stroke-opacity:1.0; stroke-opacity:1.0; stroke-width:0" 
   transform="translate(0 0) scale(1 1)">
<ellipse cx="53898" cy="54134" rx="1279" ry="1279"  /> 
</g>
<g style="fill:#FFFFFF; fill-opacity:1.0; 
  stroke:#808000; stroke-linecap:round; stroke-linejoin:round; stroke-opacity:1.0; stroke-opacity:1.0; stroke-width:0" 
   transform="translate(0 0) scale(1 1)">
<ellipse cx="53898" cy="54134" rx="1279" ry="1279"  /> 
</g>
<g style="fill:#FFFFFF; fill-opacity:1.0; 
  stroke:#0000C0; stroke-linecap:round; stroke-linejoin:round; stroke-opacity:1.0; stroke-opacity:1.0; stroke-width:0" 
   transform="translate(0 0) scale(1 1)">
<path d="M53896 53134 L53900 53134" /> 
<path d="M53898 53132 L53898 53136" /> 
</g>
<g style="fill:#808000; fill-opacity:1.0; 
  stroke:#808000; stroke-linecap:round; stroke-linejoin:round; stroke-opacity:1.0; stroke-opacity:1.0; stroke-width:0" 
   transform="translate(0 0) scale(1 1)">
<ellipse cx="51039" cy="58508" rx="1791" ry="1791"  /> 
</g>
<g style="fill:#FFFFFF; fill-opacity:1.0; 
  stroke:#808000; stroke-linecap:round; stroke-linejoin:round; stroke-opacity:1.0; stroke-opacity:1.0; stroke-width:0" 
   transform="translate(0 0) scale(1 1)">
<ellipse cx="51039" cy="58508" rx="1791" ry="1791"  /> 
</g>
<g style="fill:#FFFFFF; fill-opacity:1.0; 
  stroke:#0000C0; stroke-linecap:round; stroke-linejoin:round; stroke-opacity:1.0; stroke-opacity:1.0; stroke-width:0" 
   transform="translate(0 0) scale(1 1)">
<path d="M51037 57508 L51041 57508" /> 
<path d="M51039 57506 L51039 57510" /> 
</g> 
</svg> 
