<?xml version="1.0" encoding="UTF-8" standalone="no"?>
<!-- Created with Inkscape (http://www.inkscape.org/) -->

<svg
   xmlns:dc="http://purl.org/dc/elements/1.1/"
   xmlns:cc="http://creativecommons.org/ns#"
   xmlns:rdf="http://www.w3.org/1999/02/22-rdf-syntax-ns#"
   xmlns:svg="http://www.w3.org/2000/svg"
   xmlns="http://www.w3.org/2000/svg"
   xmlns:sodipodi="http://sodipodi.sourceforge.net/DTD/sodipodi-0.dtd"
   xmlns:inkscape="http://www.inkscape.org/namespaces/inkscape"
   version="1.1"
   width="541.41699pt"
   height="541.41602pt"
   viewBox="0 0 541.417 541.416"
   id="svg2242"
   xml:space="preserve"
   inkscape:version="0.48.3.1 r9886"
   sodipodi:docname="vampire-brd_panel_new23febplus.svg"><sodipodi:namedview
   pagecolor="#ffffff"
   bordercolor="#666666"
   borderopacity="1"
   objecttolerance="10"
   gridtolerance="10"
   guidetolerance="10"
   inkscape:pageopacity="0"
   inkscape:pageshadow="2"
   inkscape:window-width="1398"
   inkscape:window-height="1029"
   id="namedview3377"
   showgrid="true"
   showguides="true"
   inkscape:guide-bbox="true"
   inkscape:zoom="4.513261"
   inkscape:cx="304.43256"
   inkscape:cy="174.94148"
   inkscape:window-x="0"
   inkscape:window-y="19"
   inkscape:window-maximized="1"
   inkscape:current-layer="svg2242"
   inkscape:document-units="mm"
   inkscape:snap-grids="false"><inkscape:grid
     type="xygrid"
     id="grid3379"
     units="mm"
     empspacing="5"
     dotted="true"
     visible="true"
     enabled="true"
     snapvisiblegridlinesonly="true" /><sodipodi:guide
     orientation="0,1"
     position="283.46457,620.07874"
     id="guide3123" /><sodipodi:guide
     orientation="0,1"
     position="124.01575,230.31496"
     id="guide3133" /></sodipodi:namedview><metadata
   id="metadata2286"><rdf:RDF><cc:Work
       rdf:about=""><dc:format>image/svg+xml</dc:format><dc:type
         rdf:resource="http://purl.org/dc/dcmitype/StillImage" /><dc:title></dc:title></cc:Work></rdf:RDF></metadata><defs
   id="defs2284">
		
		
		
		
		
		
		
	
		
		
		
		
		
		
		
		
		
		
		
		
	
			
			
			
			
			
		
			
			
			
			
			
			
		
			
			
			
			
			
		
			
			
			
			
			
			
			
			
			
			
		
		
		
		
		
		
		
		
	
		
		
		
		
		
		
		
		
		
		
		
		
	
			
			
			
			
			
		
			
			
			
			
			
			
		
			
			
			
			
			
		
			
			
			
			
			
			
			
			
			
			
		
		
		
		
		
		
		
		
	
		
		
		
		
		
		
		
	
		
		
		
		
		
		
		
		
		
		
		
		
	
			
			
			
			
			
		
			
			
			
			
			
			
		
			
			
			
			
			
		
			
			
			
			
			
			
			
			
			
			
		
		
		
		
		
		
		
		
	
		
		
		
		
		
		
		
		
		
		
		
		
	
			
			
			
			
			
		
			
			
			
			
			
			
		
			
			
			
			
			
		
			
			
			
			
			
			
			
			
			
			
		
		
		
		
		
		
		
		
	
		
		
		
		
		
		
		
		
		
		
		
		
	
			
			
			
			
			
		
			
			
			
			
			
			
		
			
			
			
			
			
		
			
			
			
			
			
			
			
			
			
			
		
		
		
		
		
		
		
		
	
		
		
		
		
		
		
		
		
		
		
		
		
	
			
			
			
			
			
		
			
			
			
			
			
			
		
			
			
			
			
			
		
			
			
			
			
			
			
			
			
			
			
		
		
		
		
		
		
		
		
	
		
		
		
		
		
		
		
		
		
		
		
		
	
			
			
			
			
			
		
			
			
			
			
			
			
		
			
			
			
			
			
		
			
			
			
			
			
			
			
			
			
			
		
		
		
		
		
		
		
		
	
		
		
		
		
		
		
		
	
		
		
		
		
		
		
		
		
		
		
		
		
	
			
			
			
			
			
		
			
			
			
			
			
			
		
			
			
			
			
			
		
			
			
			
			
			
			
			
			
			
			
		</defs>
	<rect
   width="541.41736"
   height="541.41736"
   x="0.89512694"
   y="0.91253668"
   id="rect21823"
   style="fill:#f6921e" /><rect
   width="513.07129"
   height="513.0722"
   x="15.068135"
   y="15.085568"
   id="rect21825"
   style="fill:#ffffff" /><g
   id="layer9-1"
   transform="translate(0.7799525,0.46029375)" />
<path
   style="fill:none;stroke:#ff0000;stroke-width:0.02834646000000000;stroke-linecap:round;stroke-linejoin:round;stroke-miterlimit:4;stroke-opacity:1;stroke-dasharray:none"
   id="path5608"
   d="m 158.74559,86.00548 -22.104,178.704"
   inkscape:connector-curvature="0" /><path
   style="fill:none;stroke:#ff0000;stroke-width:0.02834646000000000;stroke-linecap:round;stroke-linejoin:round;stroke-miterlimit:4;stroke-opacity:1;stroke-dasharray:none"
   id="path5612"
   d="m 158.78159,86.00548 -23.76,-52.38"
   inkscape:connector-curvature="0" /><path
   style="fill:none;stroke:#ff0000;stroke-width:0.02834646000000000;stroke-linecap:round;stroke-linejoin:round;stroke-miterlimit:4;stroke-opacity:1;stroke-dasharray:none"
   id="path5614"
   d="m 54.99359,86.07748 21.816,178.56"
   inkscape:connector-curvature="0" /><path
   style="fill:none;stroke:#ff0000;stroke-width:0.02834646000000000;stroke-linecap:round;stroke-linejoin:round;stroke-miterlimit:4;stroke-opacity:1;stroke-dasharray:none"
   id="path5616"
   d="m 55.20959,86.11348 23.652,-52.596"
   inkscape:connector-curvature="0" /><path
   style="fill:none;stroke:#0000ff;stroke-width:0.02834646000000000;stroke-linecap:round;stroke-linejoin:round;stroke-miterlimit:4;stroke-opacity:1;stroke-dasharray:none"
   id="path5632"
   d="m 63.38159,309.27748 86.328,0"
   inkscape:connector-curvature="0" /><path
   style="fill:none;stroke:#ff0000;stroke-width:0.02834646000000000;stroke-linecap:round;stroke-linejoin:round;stroke-miterlimit:4;stroke-opacity:1;stroke-dasharray:none"
   id="path6238"
   d="m 136.71359,264.70948 -59.94,-0.108"
   inkscape:connector-curvature="0" /><path
   style="fill:none;stroke:#0000ff;stroke-width:0.02834646000000000;stroke-linecap:round;stroke-linejoin:round;stroke-miterlimit:4;stroke-opacity:1;stroke-dasharray:none"
   id="path6496"
   d="M 49.138358,18.928137 20.649594,90.973475"
   inkscape:connector-curvature="0"
   sodipodi:nodetypes="cc" /><path
   style="fill:none;stroke:#0000ff;stroke-width:0.02834646000000000;stroke-linecap:round;stroke-linejoin:round;stroke-miterlimit:4;stroke-opacity:1;stroke-dasharray:none"
   id="path6498"
   d="M 20.649594,90.973475 63.473404,309.15633"
   inkscape:connector-curvature="0"
   sodipodi:nodetypes="cc" /><path
   style="fill:none;stroke:#0000ff;stroke-width:0.02834646000000000;stroke-linecap:round;stroke-linejoin:round;stroke-miterlimit:4;stroke-opacity:1;stroke-dasharray:none"
   id="path6502"
   d="M 193.12559,91.189475 165.36578,18.928137"
   inkscape:connector-curvature="0"
   sodipodi:nodetypes="cc" /><path
   style="fill:none;stroke:#0000ff;stroke-width:0.02834646;stroke-linecap:round;stroke-linejoin:round;stroke-miterlimit:4;stroke-opacity:1;stroke-dasharray:none"
   id="path6510"
   d="M 149.7212,309.1428 193.12559,91.189475"
   inkscape:connector-curvature="0"
   sodipodi:nodetypes="cc" /><ellipse
   style="fill:none;stroke:#0000ff;stroke-width:3.9370079;stroke-linecap:round;stroke-linejoin:round;stroke-miterlimit:4;stroke-opacity:1;stroke-dasharray:none"
   id="ellipse6520"
   ry="433"
   rx="433"
   cy="63189"
   cx="56063"
   sodipodi:cx="56063"
   sodipodi:cy="63189"
   sodipodi:rx="433"
   sodipodi:ry="433"
   d="m 56496,63189 c 0,239.139 -193.861,433 -433,433 -239.139,0 -433,-193.861 -433,-433 0,-239.139 193.861,-433 433,-433 239.139,0 433,193.861 433,433 z"
   transform="matrix(0.0072,0,0,0.0072,-261.01441,-181.61852)" /><ellipse
   style="fill:none;stroke:#0000ff;stroke-width:3.9370079;stroke-linecap:round;stroke-linejoin:round;stroke-miterlimit:4;stroke-opacity:1;stroke-dasharray:none"
   id="ellipse6616"
   ry="433"
   rx="433"
   cy="63189"
   cx="46063"
   sodipodi:cx="46063"
   sodipodi:cy="63189"
   sodipodi:rx="433"
   sodipodi:ry="433"
   d="m 46496,63189 c 0,239.139 -193.861,433 -433,433 -239.139,0 -433,-193.861 -433,-433 0,-239.139 193.861,-433 433,-433 239.139,0 433,193.861 433,433 z"
   transform="matrix(0.0072,0,0,0.0072,-261.01441,-181.61852)" /><ellipse
   style="fill:none;stroke:#0000ff;stroke-width:3.9370079;stroke-linecap:round;stroke-linejoin:round;stroke-miterlimit:4;stroke-opacity:1;stroke-dasharray:none"
   id="ellipse6712"
   ry="433"
   rx="433"
   cy="37800"
   cx="41230"
   sodipodi:cx="41230"
   sodipodi:cy="37800"
   sodipodi:rx="433"
   sodipodi:ry="433"
   d="m 41663,37800 c 0,239.139 -193.861,433 -433,433 -239.139,0 -433,-193.861 -433,-433 0,-239.139 193.861,-433 433,-433 239.139,0 433,193.861 433,433 z"
   transform="matrix(0.0072,0,0,0.0072,-261.01441,-181.61852)" /><ellipse
   style="fill:none;stroke:#0000ff;stroke-width:3.9370079;stroke-linecap:round;stroke-linejoin:round;stroke-miterlimit:4;stroke-opacity:1;stroke-dasharray:none"
   id="ellipse6808"
   ry="433"
   rx="433"
   cy="37795"
   cx="60906"
   sodipodi:cx="60906"
   sodipodi:cy="37795"
   sodipodi:rx="433"
   sodipodi:ry="433"
   d="m 61339,37795 c 0,239.139 -193.861,433 -433,433 -239.139,0 -433,-193.861 -433,-433 0,-239.139 193.861,-433 433,-433 239.139,0 433,193.861 433,433 z"
   transform="matrix(0.0072,0,0,0.0072,-261.01441,-181.61852)" /><ellipse
   style="fill:none;stroke:#0000ff;stroke-width:3.9370079;stroke-linecap:round;stroke-linejoin:round;stroke-miterlimit:4;stroke-opacity:1;stroke-dasharray:none"
   id="ellipse6822"
   ry="1279"
   rx="1279"
   cy="46457"
   cx="47047"
   sodipodi:cx="47047"
   sodipodi:cy="46457"
   sodipodi:rx="1279"
   sodipodi:ry="1279"
   d="m 48326,46457 c 0,706.372 -572.628,1279 -1279,1279 -706.372,0 -1279,-572.628 -1279,-1279 0,-706.372 572.628,-1279 1279,-1279 706.372,0 1279,572.628 1279,1279 z"
   transform="matrix(0.0072,0,0,0.0072,-261.01441,-181.61852)" /><ellipse
   style="fill:none;stroke:#0000ff;stroke-width:3.9370079;stroke-linecap:round;stroke-linejoin:round;stroke-miterlimit:4;stroke-opacity:1;stroke-dasharray:none"
   id="ellipse6836"
   ry="1279"
   rx="1279"
   cy="46457"
   cx="55094"
   sodipodi:cx="55094"
   sodipodi:cy="46457"
   sodipodi:rx="1279"
   sodipodi:ry="1279"
   d="m 56373,46457 c 0,706.372 -572.628,1279 -1279,1279 -706.372,0 -1279,-572.628 -1279,-1279 0,-706.372 572.628,-1279 1279,-1279 706.372,0 1279,572.628 1279,1279 z"
   transform="matrix(0.0072,0,0,0.0072,-261.01441,-181.61852)" /><ellipse
   style="fill:none;stroke:#0000ff;stroke-width:3.9370079;stroke-linecap:round;stroke-linejoin:round;stroke-miterlimit:4;stroke-opacity:1;stroke-dasharray:none"
   id="ellipse6850"
   ry="1279"
   rx="1279"
   cy="49661"
   cx="51063"
   sodipodi:cx="51063"
   sodipodi:cy="49661"
   sodipodi:rx="1279"
   sodipodi:ry="1279"
   d="m 52342,49661 c 0,706.372 -572.628,1279 -1279,1279 -706.372,0 -1279,-572.628 -1279,-1279 0,-706.372 572.628,-1279 1279,-1279 706.372,0 1279,572.628 1279,1279 z"
   transform="matrix(0.0072,0,0,0.0072,-261.01441,-181.61852)" /><ellipse
   style="fill:none;stroke:#0000ff;stroke-width:3.9370079;stroke-linecap:round;stroke-linejoin:round;stroke-miterlimit:4;stroke-opacity:1;stroke-dasharray:none"
   id="ellipse6864"
   ry="1279"
   rx="1279"
   cy="54134"
   cx="48228"
   sodipodi:cx="48228"
   sodipodi:cy="54134"
   sodipodi:rx="1279"
   sodipodi:ry="1279"
   d="m 49507,54134 c 0,706.372 -572.628,1279 -1279,1279 -706.372,0 -1279,-572.628 -1279,-1279 0,-706.372 572.628,-1279 1279,-1279 706.372,0 1279,572.628 1279,1279 z"
   transform="matrix(0.0072,0,0,0.0072,-261.01441,-181.61852)" /><ellipse
   style="fill:none;stroke:#0000ff;stroke-width:3.9370079;stroke-linecap:round;stroke-linejoin:round;stroke-miterlimit:4;stroke-opacity:1;stroke-dasharray:none"
   id="ellipse6878"
   ry="1279"
   rx="1279"
   cy="54134"
   cx="53898"
   sodipodi:cx="53898"
   sodipodi:cy="54134"
   sodipodi:rx="1279"
   sodipodi:ry="1279"
   d="m 55177,54134 c 0,706.372 -572.628,1279 -1279,1279 -706.372,0 -1279,-572.628 -1279,-1279 0,-706.372 572.628,-1279 1279,-1279 706.372,0 1279,572.628 1279,1279 z"
   transform="matrix(0.0072,0,0,0.0072,-261.01441,-181.61852)" /><ellipse
   style="fill:none;stroke:#0000ff;stroke-width:3.9370079;stroke-linecap:round;stroke-linejoin:round;stroke-miterlimit:4;stroke-opacity:1;stroke-dasharray:none"
   id="ellipse6892"
   ry="1791"
   rx="1791"
   cy="58508"
   cx="51039"
   sodipodi:cx="51039"
   sodipodi:cy="58508"
   sodipodi:rx="1791"
   sodipodi:ry="1791"
   d="m 52830,58508 c 0,989.142 -801.858,1791 -1791,1791 -989.142,0 -1791,-801.858 -1791,-1791 0,-989.142 801.858,-1791 1791,-1791 989.142,0 1791,801.858 1791,1791 z"
   transform="matrix(0.0072,0,0,0.0072,-261.01441,-181.61852)" /><g
   id="g3893"
   style="fill:none;stroke:#ff0000;stroke-width:0.02834646;stroke-miterlimit:4;stroke-opacity:1;stroke-dasharray:none"
   transform="translate(19.339221,-79.10056)"><g
     id="g3447"
     style="fill:none;stroke:#ff0000;stroke-width:0.02834646;stroke-miterlimit:4;stroke-opacity:1;stroke-dasharray:none"><path
       sodipodi:type="star"
       style="fill:none;stroke:#ff0000;stroke-width:0.0257764;stroke-miterlimit:4;stroke-opacity:1;stroke-dasharray:none"
       id="path3887"
       sodipodi:sides="3"
       sodipodi:cx="88.58268"
       sodipodi:cy="38.974743"
       sodipodi:r1="20.641151"
       sodipodi:r2="10.320391"
       sodipodi:arg1="0.53882658"
       sodipodi:arg2="1.5847985"
       inkscape:flatsided="false"
       inkscape:rounded="0"
       inkscape:randomized="0"
       d="m 106.29922,49.56632 -17.861043,-0.272198 -17.88634,-0.272198 9.16625,-15.332014 9.1789,-15.353925 8.694789,15.604212 z"
       transform="matrix(-1.0286144,0.01881343,-0.02149664,-1.1753176,180.57036,199.85881)"
       inkscape:transform-center-x="0.075244755"
       inkscape:transform-center-y="7.5719767" /></g></g><g
   id="g3897"
   transform="matrix(1,0,0,-12.302605,19.339221,2039.2825)"
   style="stroke:#ff0000;stroke-width:0.00808165000000000;stroke-miterlimit:4;stroke-opacity:1;stroke-dasharray:none;fill:none"><g
     id="g3450"
     style="stroke:#ff0000;stroke-width:0.00808165000000000;stroke-miterlimit:4;stroke-opacity:1;stroke-dasharray:none;fill:none"><path
       style="fill:none;stroke:#ff0000;stroke-width:0.00808165000000000;stroke-linecap:butt;stroke-linejoin:miter;stroke-miterlimit:4;stroke-opacity:1;stroke-dasharray:none"
       d="m 69.49882,159.19574 36.74724,0"
       id="path4793"
       inkscape:connector-curvature="0" /></g></g><rect
   style="fill:none;stroke:#0000ff;stroke-width:0.02834646;stroke-miterlimit:4;stroke-opacity:1;stroke-dasharray:none"
   id="rect11653"
   width="28.263706"
   height="8.4222479"
   x="93.090004"
   y="25.343542" /><rect
   style="fill:none;stroke:#0000ff;stroke-width:0.02834646;stroke-miterlimit:4;stroke-opacity:1;stroke-dasharray:none"
   id="rect11655"
   width="28.266758"
   height="8.4222479"
   x="93.090004"
   y="126.72528" /><rect
   style="fill:none;stroke:#0000ff;stroke-width:0.02834646;stroke-miterlimit:4;stroke-opacity:1;stroke-dasharray:none"
   id="rect11657"
   width="8.4246054"
   height="28.264284"
   x="46.633347"
   y="66.290771" /><rect
   style="fill:none;stroke:#0000ff;stroke-width:0.01817533;stroke-miterlimit:4;stroke-opacity:1;stroke-dasharray:none"
   id="rect11659"
   width="8.4331245"
   height="28.285898"
   x="159.12628"
   y="66.26915" /><path
   style="fill:none;stroke:#ff0000;stroke-width:0.03543307;stroke-linecap:butt;stroke-linejoin:miter;stroke-opacity:1;stroke-miterlimit:4;stroke-dasharray:none"
   d="m 98.531392,41.903861 17.737698,0.20506 0,0"
   id="path4699"
   inkscape:connector-curvature="0"
   transform="matrix(0.80000001,0,0,0.80000001,0,-1.1718743e-5)" /><path
   style="fill:none;stroke:#ff0000;stroke-width:0.03543307000000000;stroke-linecap:butt;stroke-linejoin:miter;stroke-opacity:1;stroke-miterlimit:4;stroke-dasharray:none"
   d="m 168.76449,42.108921 -17.07126,0.05127"
   id="path5211"
   inkscape:connector-curvature="0"
   transform="matrix(0.80000001,0,0,0.80000001,0,-1.1718743e-5)" /><path
   style="fill:none;stroke:#0000ff;stroke-width:0.02834645;stroke-linecap:butt;stroke-linejoin:miter;stroke-miterlimit:4;stroke-opacity:1;stroke-dasharray:none"
   d="m 321.98859,129.13115 -46.63182,-0.348 -0.116,-8.46797 -28.18788,0 0,8.58397 -46.28381,-0.116 -0.23199,-41.063828 8.81596,0 -0.348,-28.30389 -8.58396,0.116 -0.232,-41.06383 46.8638,0.232 0,8.69997 28.41988,-0.116 0,-8.69997 46.51582,0 -0.116,41.17983 0,-0.116 -8.46797,0 -0.058,28.07189 8.64197,-0.029 z"
   id="path3716"
   inkscape:connector-curvature="0" />

<path
   sodipodi:nodetypes="cccccccccccccccccccccc"
   style="fill:none;stroke:#0000ff;stroke-width:0.02483764;stroke-linecap:butt;stroke-linejoin:miter;stroke-miterlimit:4;stroke-opacity:1;stroke-dasharray:none"
   d="m 18.35968,325.36987 46.63181,0.26718 -0.058,-8.40461 28.36188,0 0,8.31555 46.28382,0.0891 0.23199,31.527 -8.81596,0 0.348,21.73048 8.58396,-0.0891 0.232,31.527 -46.86381,-0.17812 -0.116,8.40049 -28.30388,-0.0269 0,-8.28449 -46.51581,0 0.116,-31.61606 0,0.0891 8.46796,0 0.058,-21.55236 -8.64196,0.0222 z"
   id="path3716-1"
   inkscape:connector-curvature="0" /><path
   sodipodi:nodetypes="cccccccccccccccccccccc"
   style="fill:none;stroke:#0000ff;stroke-width:0.02483764;stroke-linecap:butt;stroke-linejoin:miter;stroke-miterlimit:4;stroke-opacity:1;stroke-dasharray:none"
   d="m 145.98517,325.36987 46.63181,0.26718 -0.058,-8.40461 28.36188,0 0,8.31555 46.28382,0.0891 0.23199,31.527 -8.81596,0 0.348,21.73048 8.58396,-0.0891 0.232,31.527 -46.86381,-0.17812 -0.116,8.40049 -28.30388,-0.0269 0,-8.28449 -46.51581,0 0.116,-31.61606 0,0.0891 8.46796,0 0.058,-21.55236 -8.64196,0.0222 z"
   id="path3716-1-0"
   inkscape:connector-curvature="0" />

<path
   sodipodi:nodetypes="cccccccccccccccccccccc"
   style="fill:none;stroke:#0000ff;stroke-width:0.02206309;stroke-linecap:butt;stroke-linejoin:miter;stroke-miterlimit:4;stroke-opacity:1;stroke-dasharray:none"
   d="m 136.59483,515.46125 -32.03061,0.18902 0.0302,8.56714 -28.223,-0.005 0.01568,-8.70351 -33.599097,-0.03 0.248119,-31.42916 -8.144064,0 -0.02745,-21.52106 7.216228,-0.0532 0.126329,-30.64824 34.405103,-0.56176 -0.117439,-8.2862 27.857601,-0.0857 0.20142,8.48393 32.18339,-0.38435 0.0506,31.65992 0,-0.0887 8.91829,0 0.14007,21.41449 -9.10898,0.19082 z"
   id="path3716-1-0-0-7"
   inkscape:connector-curvature="0" />


<path
   sodipodi:type="arc"
   style="fill:none;stroke:#0000ff;stroke-width:0.03543307;stroke-miterlimit:4;stroke-opacity:1;stroke-dasharray:none"
   id="path3408"
   sodipodi:cx="509.61005"
   sodipodi:cy="458.82941"
   sodipodi:rx="4.7916017"
   sodipodi:ry="4.6370339"
   d="m 514.40165,458.82941 a 4.7916017,4.6370339 0 1 1 -9.58321,0 4.7916017,4.6370339 0 1 1 9.58321,0 z"
   transform="matrix(0.29195446,0,0,0.30116067,307.87933,265.60589)" /><path
   sodipodi:type="arc"
   style="fill:none;stroke:#0000ff;stroke-width:0.03543307;stroke-miterlimit:4;stroke-opacity:1;stroke-dasharray:none"
   id="path3410"
   sodipodi:cx="525.06683"
   sodipodi:cy="458.67487"
   sodipodi:rx="5.409873"
   sodipodi:ry="3.5550594"
   d="m 530.47671,458.67487 a 5.409873,3.5550594 0 1 1 -10.81975,0 5.409873,3.5550594 0 1 1 10.81975,0 z"
   transform="matrix(0.25879423,0,0,0.39133355,314.34796,224.04559)" /><path
   sodipodi:type="arc"
   style="fill:none;stroke:#0000ff;stroke-width:0.03543307;stroke-miterlimit:4;stroke-opacity:1;stroke-dasharray:none"
   id="path3410-6"
   sodipodi:cx="525.06683"
   sodipodi:cy="458.67487"
   sodipodi:rx="5.409873"
   sodipodi:ry="3.5550594"
   d="m 530.47671,458.67487 a 5.409873,3.5550594 0 1 1 -10.81975,0 5.409873,3.5550594 0 1 1 10.81975,0 z"
   transform="matrix(0.25879423,0,0,0.39133355,67.579066,219.072)" /><path
   sodipodi:type="arc"
   style="fill:none;stroke:#0000ff;stroke-width:0.03543307;stroke-miterlimit:4;stroke-opacity:1;stroke-dasharray:none"
   id="path3410-6-1"
   sodipodi:cx="525.06683"
   sodipodi:cy="458.67487"
   sodipodi:rx="5.409873"
   sodipodi:ry="3.5550594"
   d="m 530.47671,458.67487 a 5.409873,3.5550594 0 1 1 -10.81975,0 5.409873,3.5550594 0 1 1 10.81975,0 z"
   transform="matrix(0.25879423,0,0,0.39133355,73.614196,218.87462)" /></svg>